<svg
        xmlns="http://www.w3.org/2000/svg"
        id="svg4303"
        version="1.1"
        width="136.08612"
        height="123.65887"
        viewBox="0 0 136.08612 123.65887">
    <defs
            id="defs4307">
        <clipPath
                id="clipPath4317">
            <path
                    d="M 0,841.89 H 595.275 V 0 H 0 Z"
                    id="path4319"/>
        </clipPath>
    </defs>
    <g
            id="g4311"
            transform="matrix(1.25,0,0,-1.25,-292.45275,631.91837)">
        <g
                id="g4313">
            <g
                    id="g4315"
                    clip-path="url(#clipPath4317)">
                <g
                        id="g4357"
                        transform="translate(323.792,490.7773)">
                    <path
                            d="M 0,0 C -8.962,9.065 -21.415,14.688 -35.175,14.688 -48.935,14.688 -61.381,9.065 -70.349,0 Z"
                            style="fill-rule:nonzero;stroke:none"
                            id="path4359"/>
                </g>
                <g
                        id="g4361"
                        transform="translate(254.4683,420.313)"
                >
                    <path
                            d="m 0,0 c 8.879,-8.477 20.903,-13.689 34.149,-13.689 13.25,0 25.269,5.212 34.152,13.689 z"
                            style="fill-rule:nonzero;stroke:none"
                            id="path4363"/>
                </g>
                <g
                        id="g4365"
                        transform="translate(342.8311,505.5347)"
                >
                    <path
                            d="m 0,0 h -3.62 c 0,-31.814 -16.247,-52.841 -49.642,-64.266 l 1.366,-3.906 H -8.36 c 2.334,5.746 3.63,12.028 3.63,18.616 0,5.719 -0.982,11.208 -2.766,16.317 C -2.522,-23.698 0,-12.569 0,0"
                            style="fill-rule:nonzero;stroke:none"
                            id="path4367"/>
                </g>
                <g
                        id="g4369"
                        transform="translate(285.4287,465.9438)"
                >
                    <path
                            d="m 0,0 c -13.627,-5.009 -24.166,-12.051 -31.352,-20.967 -8.173,-10.138 -12.317,-23.047 -12.317,-38.369 h 2.892 c 0,27.725 13.635,46.259 41.642,56.573 z"
                            style="fill-rule:nonzero;stroke:none"
                            id="path4371"/>
                </g>
                <g
                        id="g4373"
                        transform="translate(283.0332,473.6016)"
                >
                    <path
                            d="m 0,0 h -40.655 c -2.09,-5.474 -3.245,-11.413 -3.245,-17.623 0,-5.484 0.909,-10.753 2.557,-15.68 -5.13,-9.643 -7.728,-20.924 -7.728,-33.691 h 3.618 c 0,30.843 15.278,51.553 46.641,63.196 z"
                            style="fill-rule:nonzero;stroke:none"
                            id="path4375"/>
                </g>
                <g
                        id="g4377"
                        transform="translate(332.1377,505.5347)"
                >
                    <path
                            d="m 0,0 c 0,-28.769 -14.672,-47.646 -44.854,-57.704 l 0.952,-2.733 c 15.148,5.054 26.75,12.477 34.48,22.066 C -1.247,-28.229 2.896,-15.32 2.896,0 Z"
                            style="fill-rule:nonzero;stroke:none"
                            id="path4379"/>
                </g>
            </g>
        </g>
    </g>
</svg>
