<?xml version="1.0" encoding="UTF-8" standalone="no"?>
<svg
   xmlns:dc="http://purl.org/dc/elements/1.1/"
   xmlns:cc="http://creativecommons.org/ns#"
   xmlns:rdf="http://www.w3.org/1999/02/22-rdf-syntax-ns#"
   xmlns:svg="http://www.w3.org/2000/svg"
   xmlns="http://www.w3.org/2000/svg"
   xmlns:sodipodi="http://sodipodi.sourceforge.net/DTD/sodipodi-0.dtd"
   xmlns:inkscape="http://www.inkscape.org/namespaces/inkscape"
   id="svg4303"
   version="1.1"
   inkscape:version="1.0.1 (3bc2e813f5, 2020-09-07)"
   xml:space="preserve"
   width="136.08612"
   height="123.65887"
   viewBox="0 0 136.08612 123.65887"
   sodipodi:docname="zermelo.svg"><metadata
     id="metadata4309"><rdf:RDF><cc:Work
         rdf:about=""><dc:format>image/svg+xml</dc:format><dc:type
           rdf:resource="http://purl.org/dc/dcmitype/StillImage" /><dc:title /></cc:Work></rdf:RDF></metadata><defs
     id="defs4307"><clipPath
       clipPathUnits="userSpaceOnUse"
       id="clipPath4317"><path
         d="M 0,841.89 H 595.275 V 0 H 0 Z"
         id="path4319"
         inkscape:connector-curvature="0" /></clipPath></defs><sodipodi:namedview
     pagecolor="#ffffff"
     bordercolor="#666666"
     borderopacity="1"
     objecttolerance="10"
     gridtolerance="10"
     guidetolerance="10"
     inkscape:pageopacity="0"
     inkscape:pageshadow="2"
     inkscape:window-width="1920"
     inkscape:window-height="1019"
     id="namedview4305"
     showgrid="false"
     fit-margin-top="0"
     fit-margin-left="0"
     fit-margin-right="0"
     fit-margin-bottom="0"
     inkscape:zoom="2.5371818"
     inkscape:cx="74.675434"
     inkscape:cy="98.740061"
     inkscape:window-x="1920"
     inkscape:window-y="0"
     inkscape:window-maximized="1"
     inkscape:current-layer="g4315"
     inkscape:document-rotation="0" /><g
     id="g4311"
     inkscape:groupmode="layer"
     inkscape:label="Logo Zermelo CMYK"
     transform="matrix(1.25,0,0,-1.25,-292.45275,631.91837)"><g
       id="g4313"><g
         id="g4315"
         clip-path="url(#clipPath4317)"><g
           id="g4357"
           transform="translate(323.792,490.7773)"
           style="fill:#000000;fill-opacity:1"><path
             d="M 0,0 C -8.962,9.065 -21.415,14.688 -35.175,14.688 -48.935,14.688 -61.381,9.065 -70.349,0 Z"
             style="fill:#000000;fill-opacity:1;fill-rule:nonzero;stroke:none"
             id="path4359"
             inkscape:connector-curvature="0" /></g><g
           id="g4361"
           transform="translate(254.4683,420.313)"
           style="fill:#000000;fill-opacity:1"><path
             d="m 0,0 c 8.879,-8.477 20.903,-13.689 34.149,-13.689 13.25,0 25.269,5.212 34.152,13.689 z"
             style="fill:#000000;fill-opacity:1;fill-rule:nonzero;stroke:none"
             id="path4363"
             inkscape:connector-curvature="0" /></g><g
           id="g4365"
           transform="translate(342.8311,505.5347)"
           style="fill:#000000;fill-opacity:1"><path
             d="m 0,0 h -3.62 c 0,-31.814 -16.247,-52.841 -49.642,-64.266 l 1.366,-3.906 H -8.36 c 2.334,5.746 3.63,12.028 3.63,18.616 0,5.719 -0.982,11.208 -2.766,16.317 C -2.522,-23.698 0,-12.569 0,0"
             style="fill:#000000;fill-opacity:1;fill-rule:nonzero;stroke:none"
             id="path4367"
             inkscape:connector-curvature="0" /></g><g
           id="g4369"
           transform="translate(285.4287,465.9438)"
           style="fill:#000000;fill-opacity:1"><path
             d="m 0,0 c -13.627,-5.009 -24.166,-12.051 -31.352,-20.967 -8.173,-10.138 -12.317,-23.047 -12.317,-38.369 h 2.892 c 0,27.725 13.635,46.259 41.642,56.573 z"
             style="fill:#000000;fill-opacity:1;fill-rule:nonzero;stroke:none"
             id="path4371"
             inkscape:connector-curvature="0" /></g><g
           id="g4373"
           transform="translate(283.0332,473.6016)"
           style="fill:#000000;fill-opacity:1"><path
             d="m 0,0 h -40.655 c -2.09,-5.474 -3.245,-11.413 -3.245,-17.623 0,-5.484 0.909,-10.753 2.557,-15.68 -5.13,-9.643 -7.728,-20.924 -7.728,-33.691 h 3.618 c 0,30.843 15.278,51.553 46.641,63.196 z"
             style="fill:#000000;fill-opacity:1;fill-rule:nonzero;stroke:none"
             id="path4375"
             inkscape:connector-curvature="0" /></g><g
           id="g4377"
           transform="translate(332.1377,505.5347)"
           style="fill:#000000;fill-opacity:1"><path
             d="m 0,0 c 0,-28.769 -14.672,-47.646 -44.854,-57.704 l 0.952,-2.733 c 15.148,5.054 26.75,12.477 34.48,22.066 C -1.247,-28.229 2.896,-15.32 2.896,0 Z"
             style="fill:#000000;fill-opacity:1;fill-rule:nonzero;stroke:none"
             id="path4379"
             inkscape:connector-curvature="0" /></g></g></g></g></svg>
