<?xml version="1.0" encoding="UTF-8" standalone="no"?>
<!DOCTYPE svg PUBLIC "-//W3C//DTD SVG 1.1//EN" "http://www.w3.org/Graphics/SVG/1.1/DTD/svg11.dtd">
<svg version="1.1" xmlns="http://www.w3.org/2000/svg" xmlns:xlink="http://www.w3.org/1999/xlink" preserveAspectRatio="xMidYMid meet" viewBox="0 0 640 640" width="640" height="640"><defs><path d="M254.07 338.21C222.79 340.25 194.84 389.53 189.58 420.43C185.96 441.65 176.76 462.3 170.33 485.46C168.63 491.61 176.97 500.13 182.81 502.67C187.44 504.67 194.78 502.32 199.49 500.54C212.98 495.42 221.91 475.71 227.03 470.4C231.27 466.03 223.19 485.59 226.52 490.68C237.68 507.78 255.84 524.89 271.25 537.5C275.26 540.77 283.8 536.75 288.44 539.04C293.59 541.58 306.04 557.82 311.22 560.29C323.16 562.58 318.72 558.67 328.99 569.75C336.03 575.01 347.78 580.41 356.54 579.67C374.01 578.21 397.76 548.67 407.52 551.01C417.3 553.37 447.59 578.27 467.89 585.91C480.05 590.5 494.17 601.07 505.86 606.72C522.94 614.94 545.81 626.27 564.11 631.18C571.25 633.1 581.17 633.4 588.51 634.27C603.94 636.11 614.86 634.57 640 640C638.17 613.6 636.72 492.8 637.42 476.07C624.07 474.99 600.98 461.19 586.45 452.7C565.99 440.75 541.23 420.88 522.48 406.41C510.79 397.39 496.76 383.36 484.49 375.18C463.26 361 443.88 333.73 421.55 335.06C361.2 338.63 334.94 332.97 254.07 338.21ZM361.75 513.03L333.69 507.81L328.99 500.02L346.18 489.65L361.75 513.03Z" id="acUU6hhax"></path><path d="M249.92 503.68C253.98 501.88 261.15 503.35 264.49 506.28C277.85 521.63 275.94 526.14 272.29 538.54C271.6 539.2 269.83 538.7 269.17 538.02C261.8 530.37 251.51 523.69 242.66 513.54C240.73 511.33 247.23 504.88 249.92 503.68Z" id="e6SY6QxelX"></path><path d="M334.7 559.88L331.58 546.34L336.26 536.46L353.95 531.25L363.83 532.29L370.07 539.58L378.39 561.95L334.7 559.88Z" id="f8zY9J0Dw"></path><path d="M252.14 473.23C252.14 473.23 266.49 469.77 274.92 479.74C279.42 485.06 289.27 488.69 292.6 494.82C295.99 501.05 296.49 511.19 295.73 518.24C294.98 525 287.96 539.54 287.96 539.54" id="juKbFuTPw"></path><path d="M315.46 475.58L334.19 508.88L366.95 513.56L382.04 522.41L387.76 536.97L386.72 552.59L382.56 566.63L312.95 560.91" id="aDpbCk46Y"></path><path d="M345.11 391.81C347.94 389.11 347.65 379.1 351.35 380.36C358.98 382.95 342.12 400.63 347.19 406.89C350.62 411.15 360.51 410.39 365.39 407.93C370.22 405.5 370.19 391.01 375.28 392.85C379.12 394.24 374.81 402.44 373.72 406.37C373.11 408.53 369.76 411.06 370.6 413.14C372.46 417.82 381.79 421.83 386.2 419.38C391.6 416.38 388.62 405.15 389.84 399.09C390.69 394.86 388.67 385.5 392.97 385.04C395.18 384.8 395.95 389.58 396.08 391.81C396.33 396.25 391.96 401.45 391.4 405.86C390.55 412.53 399.1 430.96 392.97 428.23C372.09 418.94 344.39 406.07 328.98 399.61C324.03 397.53 341.21 395.51 345.11 391.81Z" id="b1DPHF87Ec"></path><path d="M232.91 453.1L227.81 466.94L209.61 492.44L197.23 490.25L195.77 475.69L213.98 447.27L232.91 453.1Z" id="f1HCReKJCR"></path><linearGradient id="gradientc23BdllOzg" gradientUnits="userSpaceOnUse" x1="229.28" y1="458.95" x2="201.61" y2="461.85"><stop style="stop-color: #3b3c3b;stop-opacity: 1" offset="0%"></stop><stop style="stop-color: #3b3c3b;stop-opacity: 0" offset="100%"></stop></linearGradient><path d="M229.82 472.23L256.4 473.5L267.32 473.5L275.33 477.86L284.79 474.23L303.74 484.42C315.96 486.61 322.76 487.83 324.12 488.07C324.12 488.07 321.93 477.86 318.3 476.41C314.65 474.95 276.06 462.02 276.06 462.02C275.93 462.29 275.26 463.63 274.05 466.03L233.82 454.93L229.82 472.23Z" id="ajqdpPxWU"></path><linearGradient id="gradientc1boM86bm4" gradientUnits="userSpaceOnUse" x1="268.78" y1="459.67" x2="260.76" y2="494.26"><stop style="stop-color: #363939;stop-opacity: 1" offset="0%"></stop><stop style="stop-color: #363939;stop-opacity: 0" offset="100%"></stop></linearGradient><path d="M414.77 543.97L418.91 539.98L422.12 543.48L419.38 551.96L415.7 555.94L407.89 550.46L405.13 550.46L414.77 543.97Z" id="a3HpndX6Wv"></path><linearGradient id="gradientcNAjmWcUC" gradientUnits="userSpaceOnUse" x1="405.13" y1="547.98" x2="422.13" y2="547.98"><stop style="stop-color: #000000;stop-opacity: 1" offset="0%"></stop><stop style="stop-color: #000000;stop-opacity: 0" offset="100%"></stop></linearGradient><path d="M321.21 505.47L310.91 511.65L322.74 508.56L333.56 508.56L321.21 505.47Z" id="aeZ5OsPgB"></path><path d="M349.79 408.67L370.18 415.95L394.21 426.87L413.14 433.43L448.1 430.52L434.99 421.05L415.32 420.32L392.76 413.03L374.55 407.93L351.25 397L327.21 398.46L349.79 408.67Z" id="n5dDGhCsAp"></path><linearGradient id="gradientc1YM44sal" gradientUnits="userSpaceOnUse" x1="381.84" y1="442.19" x2="397.86" y2="397.02"><stop style="stop-color: #3a3b3a;stop-opacity: 1" offset="0%"></stop><stop style="stop-color: #3a3b3a;stop-opacity: 0" offset="100%"></stop></linearGradient><path d="M380.01 567.83L369.45 576.21L357.43 579.48L349.06 579.12L334.49 574.75L324.3 562.01L380.01 567.83Z" id="a1xG9WtJn3"></path><linearGradient id="gradientd2ykHusla0" gradientUnits="userSpaceOnUse" x1="348.76" y1="565.66" x2="349.73" y2="575.49"><stop style="stop-color: #514843;stop-opacity: 1" offset="0%"></stop><stop style="stop-color: #514843;stop-opacity: 0" offset="100%"></stop></linearGradient><path d="M228.59 468.81L232.24 452.17" id="b5lwN8EfiY"></path><path d="M328.07 497.3L347 487.83L318.59 479.08L328.07 497.3Z" id="cgdNxyMVg"></path><path d="M380.71 502.3L385.81 508.86L377.79 515.42L363.23 511.77L348.67 489.19L380.71 502.3Z" id="b8a72BXvI"></path><path d="M369.6 515.26L387.11 509.07" id="apxJB6ost"></path><path d="M405.13 549.25L420.58 539.98" id="b6tEYh2gxP"></path><path d="M320.6 504.03L330.79 505.49L317.32 482.54L301.67 479.27L320.6 504.03Z" id="b2ryD8i6aJ"></path><linearGradient id="gradientcmpFv8NEH" gradientUnits="userSpaceOnUse" x1="314.22" y1="485.85" x2="330.8" y2="512.8"><stop style="stop-color: #796052;stop-opacity: 1" offset="0%"></stop><stop style="stop-color: #796052;stop-opacity: 0" offset="100%"></stop></linearGradient><path d="M269.08 474.35L270.9 464.33" id="accIfq884T"></path><path d="M395.77 554.45L394.94 542.33L391.24 530.26L407.16 529.74L418.82 542.29L395.77 554.45Z" id="b1HtOyzmqv"></path><path d="M387.63 510.1L399.98 520.92L412.85 534.83L418.52 540.5L407.7 550.8L388.15 563.16L390.2 550.8L391.23 537.4L385.05 522.46L375.78 516.29L372.7 516.29L387.63 510.1Z" id="d4NtPpuMIK"></path><linearGradient id="gradientd2V33CMNCu" gradientUnits="userSpaceOnUse" x1="385.06" y1="524.3" x2="415.96" y2="542.84"><stop style="stop-color: #6d594e;stop-opacity: 1" offset="0%"></stop><stop style="stop-color: #6d594e;stop-opacity: 0" offset="100%"></stop></linearGradient><path d="M314.23 343.02C308.51 344.6 309.02 365.63 314.23 362.8C342.6 347.41 379.43 360.01 404.28 358.4C408.69 358.12 410.87 345.22 410.87 345.22C397.69 348.52 336.06 337.03 314.23 343.02Z" id="b1jZMrANN"></path><linearGradient id="gradientc1CxTPOejC" gradientUnits="userSpaceOnUse" x1="360.5" y1="341.27" x2="360.5" y2="352.16"><stop style="stop-color: #ffffff;stop-opacity: 1" offset="0%"></stop><stop style="stop-color: #ffffff;stop-opacity: 0" offset="100%"></stop></linearGradient><path d="M261.44 456.84C255.72 455.27 257.56 432.57 261.44 437.07C282.04 461 355.16 482.48 379.43 488.06C400.93 493.01 396.11 510.57 396.11 510.57C382.93 507.27 283.27 462.84 261.44 456.84Z" id="beO2Osb1x"></path><linearGradient id="gradientgHZ76LNoU" gradientUnits="userSpaceOnUse" x1="326.72" y1="461.7" x2="321.29" y2="474.89"><stop style="stop-color: #ffffff;stop-opacity: 1" offset="0%"></stop><stop style="stop-color: #ffffff;stop-opacity: 0" offset="100%"></stop></linearGradient><path d="M51.01 228.84C53.21 221.16 58.15 218.43 65.83 220.63C217.38 264.08 301.57 288.22 318.41 293.05C326.08 295.25 328.82 300.19 326.62 307.87C300.87 397.67 286.56 447.56 283.7 457.54C281.5 465.22 276.56 467.96 268.89 465.76C117.34 422.3 33.14 398.16 16.3 393.33C8.63 391.13 5.89 386.19 8.09 378.52C33.84 288.71 48.15 238.82 51.01 228.84Z" id="a6dNaiwY8p"></path><path d="M66.7 280.06C66.7 280.06 55.06 284.38 48.09 287.78C41.27 291.1 35.63 294.42 31.41 297.2C31.89 295.52 34.3 287.13 38.63 272.02C55.47 276.84 64.82 279.53 66.7 280.06Z" id="e36K8QU5B"></path><path d="M308.67 370.47C310.47 364.18 324.92 313.8 326.72 307.51C328.55 301.15 324.87 294.52 318.51 292.69C305.97 289.1 205.61 260.32 193.06 256.72C201.91 261.66 248.75 288.47 272.06 314.81C289.3 334.29 301.35 359.34 308.67 370.47Z" id="c7DXO0w5I2"></path><path d="M128.31 290.16C155.01 297.82 189.99 322.44 209.61 336.25C216.86 341.35 222.01 344.97 223.86 345.71C230.73 348.47 237.73 341.87 237.73 341.87C241.31 338.08 259.24 319.1 291.51 284.95C156.16 246.14 80.97 224.58 65.93 220.27C59.57 218.45 52.94 222.12 51.12 228.47C51.12 228.47 51.12 228.48 51.11 228.48C50.06 232.17 44.77 250.61 35.25 283.81C69.51 280.08 100.53 282.2 128.31 290.16Z" id="c2ue7qJcsf"></path><path d="M79.29 246.53L82.3 247.39L78.95 259.08L84.7 260.73L83.98 263.21L75.23 260.7L79.29 246.53ZM86.56 263.95L90.62 249.77L98.79 252.12L98.08 254.58L92.92 253.1L92.03 256.21L96.83 257.59L96.12 260.05L91.32 258.68L90.28 262.33L95.43 263.81L94.72 266.29L86.56 263.95ZM97.79 267.17L101.86 253L110.02 255.34L109.31 257.8L104.15 256.32L103.26 259.43L108.06 260.81L107.36 263.27L102.56 261.9L101.51 265.55L106.67 267.03L105.96 269.51L97.79 267.17ZM115.26 263.65C116.21 263.92 116.96 263.97 117.5 263.78C118.04 263.59 118.41 263.16 118.61 262.48C118.8 261.81 118.7 261.26 118.32 260.84C117.94 260.43 117.27 260.08 116.3 259.8C116.24 259.79 115.93 259.7 115.39 259.54L114.29 263.37C114.87 263.54 115.19 263.63 115.26 263.65ZM112.03 271.26L109.02 270.39L113.09 256.22C115.57 256.93 116.94 257.32 117.22 257.4C119.15 257.95 120.47 258.71 121.19 259.68C121.92 260.65 122.07 261.84 121.66 263.27C121.43 264.11 120.98 264.78 120.34 265.31C119.69 265.82 118.9 266.14 117.95 266.27C119.17 270.07 119.97 272.53 120.35 273.64C120.13 273.58 119.01 273.26 117.01 272.69L115.19 266.27L113.59 265.82L112.03 271.26ZM126.3 260L129.3 260.87L125.95 272.56L131.7 274.21L130.99 276.69L122.23 274.18L126.3 260ZM137.63 263.25L140.63 264.11L136.57 278.29L133.56 277.43L137.63 263.25ZM148.99 281.86L145.9 269.36C145.85 269.35 145.82 269.34 145.81 269.34C145.39 271.27 145.07 272.63 144.84 273.44C144.71 273.89 144.07 276.11 142.92 280.11L140.24 279.34L144.3 265.17L148.09 266.25L151.21 278.64C151.25 278.65 151.27 278.66 151.27 278.66C151.71 276.79 152.03 275.47 152.25 274.71C152.38 274.26 153.02 272.02 154.17 268L156.88 268.77L152.81 282.95L148.99 281.86ZM169.78 279.2C168.52 283.61 167.82 286.06 167.67 286.55C166.68 286.59 165.76 286.55 164.92 286.43C164.08 286.32 163.24 286.15 162.4 285.91C160.26 285.3 158.81 284.2 158.03 282.62C157.27 281.04 157.23 279.07 157.9 276.72C158.56 274.43 159.72 272.83 161.39 271.93C163.07 271.02 165.07 270.9 167.4 271.57C168.85 271.99 170.17 272.68 171.35 273.65C171.18 273.86 169.83 275.55 169.67 275.77C168.78 274.95 167.78 274.39 166.66 274.06C165.36 273.69 164.19 273.83 163.16 274.48C162.13 275.13 161.4 276.19 160.98 277.66C160.54 279.2 160.51 280.47 160.91 281.46C161.31 282.45 162.11 283.12 163.31 283.46C163.94 283.64 164.59 283.76 165.28 283.82C165.33 283.62 165.62 282.63 166.13 280.86L163.44 280.09L164.16 277.59L169.78 279.2ZM170.98 288.16L175.05 273.98L183.21 276.32L182.51 278.79L177.35 277.31L176.46 280.42L181.26 281.8L180.55 284.26L175.75 282.88L174.7 286.54L179.86 288.02L179.15 290.5L170.98 288.16ZM190.97 293.89L187.88 281.4C187.83 281.38 187.8 281.38 187.79 281.37C187.37 283.3 187.05 284.67 186.82 285.48C186.69 285.92 186.05 288.15 184.9 292.15L182.22 291.38L186.28 277.2L190.07 278.29L193.19 290.68C193.23 290.69 193.25 290.69 193.25 290.7C193.69 288.82 194.01 287.51 194.23 286.75C194.36 286.3 195 284.06 196.15 280.03L198.86 280.81L194.79 294.99L190.97 293.89ZM207.83 291.2C206.69 291.66 205.26 291.65 203.55 291.16C203.41 291.12 202.68 290.91 201.36 290.53L199.68 296.39L198.69 296.11L202.76 281.93C204.84 282.53 206 282.86 206.23 282.92C209.61 283.89 210.9 285.73 210.13 288.45C209.73 289.82 208.97 290.74 207.83 291.2ZM203.56 290.24C205.15 290.7 206.38 290.77 207.24 290.45C208.11 290.12 208.71 289.37 209.05 288.18C209.36 287.09 209.26 286.18 208.73 285.47C208.21 284.75 207.25 284.18 205.84 283.78C205.68 283.73 204.9 283.51 203.49 283.1L201.61 289.68C202.78 290.02 203.43 290.2 203.56 290.24ZM212.91 294.77L209.5 299.21L208.4 298.89L218.19 286.29L218.82 286.47L220.32 302.31L219.21 301.99L218.67 296.42L212.91 294.77ZM218.6 295.43C218.32 292.04 218.17 290.15 218.14 289.77C218.09 289.32 218.05 288.71 218.03 287.93C217.68 288.51 217.33 289.01 216.98 289.46C216.75 289.76 215.6 291.27 213.53 293.98L218.6 295.43ZM229.2 303.94C228.13 304.38 226.88 304.4 225.44 303.99C223.71 303.49 222.43 302.92 221.62 302.27C221.64 302.17 221.87 301.38 221.9 301.28C222.8 302.01 224.04 302.6 225.62 303.05C226.79 303.39 227.78 303.38 228.61 303.05C229.45 302.71 230 302.11 230.25 301.24C230.4 300.7 230.41 300.23 230.29 299.81C230.16 299.39 229.89 298.96 229.46 298.53C229.03 298.09 228.37 297.56 227.48 296.94C226.17 296.03 225.33 295.2 224.93 294.47C224.55 293.73 224.5 292.88 224.78 291.91C225.08 290.85 225.74 290.11 226.76 289.68C227.79 289.25 228.95 289.22 230.26 289.59C231.59 289.98 232.77 290.59 233.79 291.43C233.73 291.5 233.25 292.1 233.19 292.18C232.15 291.35 231.1 290.78 230.03 290.47C228.98 290.17 228.08 290.17 227.32 290.48C226.56 290.79 226.06 291.36 225.82 292.19C225.67 292.72 225.64 293.17 225.73 293.56C225.83 293.96 226.05 294.35 226.41 294.74C226.77 295.13 227.42 295.67 228.36 296.34C229.36 297.04 230.08 297.65 230.54 298.17C230.99 298.69 231.28 299.21 231.4 299.74C231.53 300.27 231.5 300.86 231.31 301.5C230.97 302.69 230.27 303.5 229.2 303.94Z" id="b1K8xvazJ7"></path><path d="M85.1 345.56C84.1 349.04 80.48 351.05 77 350.05C73.52 349.06 71.51 345.43 72.51 341.95C73.5 338.47 77.13 336.46 80.61 337.46C84.09 338.46 86.1 342.09 85.1 345.56ZM89.35 375.99C89.29 376.21 88.98 377.31 88.41 379.29L51.83 368.8C52.4 366.82 52.71 365.72 52.77 365.5C53.32 363.58 63.97 361.89 72.87 364.45C81.78 367 89.91 374.07 89.35 375.99ZM66.81 340.32C64.91 346.95 68.74 353.85 75.36 355.75C81.99 357.65 88.9 353.82 90.8 347.2C92.7 340.57 88.87 333.67 82.24 331.77C75.62 329.87 68.71 333.69 66.81 340.32ZM47.08 363.86C46.91 364.46 46.05 367.46 44.5 372.86L92.47 386.62C94.02 381.22 94.88 378.22 95.05 377.62C97.34 369.65 82.51 361.05 74.5 358.75C66.5 356.45 49.36 355.89 47.08 363.86Z" id="bSgqA99ma"></path><path d="M573.44 602.03C573.44 602.03 512.78 587.65 488.14 577.57C468.43 569.52 443.02 556.19 425.72 543.75C413.26 534.8 400.72 517.87 388.27 508.9C377.16 500.89 360.65 492.77 348.22 487.04C323.95 475.85 288.54 467.94 264.99 455.3C252.49 448.58 234.34 439.57 226.51 427.72C222.54 421.72 220.46 411.45 221.3 404.31C222.09 397.58 226.33 388.73 231.18 384.01C235.24 380.07 242.78 377.17 248.35 376.21C258.85 374.41 270.92 379.37 281.11 382.45C290.81 385.38 303.92 391.81 313.37 395.46C318.91 397.6 326.99 398.2 332.62 400.15C339.41 402.49 347.82 407.25 354.46 410.03C371.28 417.06 393.11 429.3 411.15 431.88C426.04 434.01 461.09 427.72 461.09 427.72" id="b9kxGLmTR"></path><path d="M260.84 433.96C253.8 437.97 240.28 434.25 234.31 428.75C229.67 424.47 228.37 414.78 228.59 408.46C228.81 402.49 231.47 394.27 235.36 389.72C238.95 385.54 244.92 383.06 250.44 382.97C258.46 382.81 272.08 385.51 275.4 392.85C271.46 399.55 259.72 426.95 260.84 433.96Z" id="c5g7lPQAKm"></path><path d="M324.29 411.21C315.02 425.11 307.81 441.09 307.81 441.09C307.6 441.88 306.57 445.82 304.72 452.93" id="bfQhNxwZB"></path><path d="M326.36 417.9C324.81 419.96 318.63 434.9 318.63 434.9C318.28 435.93 316.57 441.08 313.48 450.36" id="b85QvZWVh"></path></defs><g><g><g><use xlink:href="#acUU6hhax" opacity="1" fill="#db9977" fill-opacity="1"></use><g><use xlink:href="#acUU6hhax" opacity="1" fill-opacity="0" stroke="#000000" stroke-width="3.75" stroke-opacity="1"></use></g></g><g><use xlink:href="#e6SY6QxelX" opacity="1" fill="none" fill-opacity="1"></use><g><use xlink:href="#e6SY6QxelX" opacity="1" fill-opacity="0" stroke="#000000" stroke-width="3.75" stroke-opacity="1"></use></g></g><g><use xlink:href="#f8zY9J0Dw" opacity="1" fill="none" fill-opacity="1"></use><g><use xlink:href="#f8zY9J0Dw" opacity="1" fill-opacity="0" stroke="#000000" stroke-width="3.75" stroke-opacity="1"></use></g></g><g><use xlink:href="#juKbFuTPw" opacity="1" fill="#000000" fill-opacity="0"></use><g><use xlink:href="#juKbFuTPw" opacity="1" fill-opacity="0" stroke="#000000" stroke-width="3.75" stroke-opacity="1"></use></g></g><g><use xlink:href="#aDpbCk46Y" opacity="1" fill="#000000" fill-opacity="0"></use><g><use xlink:href="#aDpbCk46Y" opacity="1" fill-opacity="0" stroke="#000000" stroke-width="3.75" stroke-opacity="1"></use></g></g><g><use xlink:href="#b1DPHF87Ec" opacity="1" fill="#2e3436" fill-opacity="1"></use><g><use xlink:href="#b1DPHF87Ec" opacity="1" fill-opacity="0" stroke="#000000" stroke-width="1.88" stroke-opacity="1"></use></g></g><g><use xlink:href="#f1HCReKJCR" opacity="1" fill="url(#gradientc23BdllOzg)"></use><g><use xlink:href="#f1HCReKJCR" opacity="1" fill-opacity="0" stroke="#000000" stroke-width="1" stroke-opacity="0"></use></g></g><g><use xlink:href="#ajqdpPxWU" opacity="1" fill="url(#gradientc1boM86bm4)"></use><g><use xlink:href="#ajqdpPxWU" opacity="1" fill-opacity="0" stroke="#000000" stroke-width="1" stroke-opacity="0"></use></g></g><g><use xlink:href="#a3HpndX6Wv" opacity="1" fill="url(#gradientcNAjmWcUC)"></use><g><use xlink:href="#a3HpndX6Wv" opacity="1" fill-opacity="0" stroke="#000000" stroke-width="1" stroke-opacity="0"></use></g></g><g><use xlink:href="#aeZ5OsPgB" opacity="1" fill="#000000" fill-opacity="0"></use><g><use xlink:href="#aeZ5OsPgB" opacity="1" fill-opacity="0" stroke="#000000" stroke-width="3.75" stroke-opacity="1"></use></g></g><g><use xlink:href="#n5dDGhCsAp" opacity="1" fill="url(#gradientc1YM44sal)"></use><g><use xlink:href="#n5dDGhCsAp" opacity="1" fill-opacity="0" stroke="#000000" stroke-width="1" stroke-opacity="0"></use></g></g><g><use xlink:href="#a1xG9WtJn3" opacity="1" fill="url(#gradientd2ykHusla0)"></use><g><use xlink:href="#a1xG9WtJn3" opacity="1" fill-opacity="0" stroke="#000000" stroke-width="1" stroke-opacity="0"></use></g></g><g><use xlink:href="#b5lwN8EfiY" opacity="1" fill="#000000" fill-opacity="0"></use><g><use xlink:href="#b5lwN8EfiY" opacity="1" fill-opacity="0" stroke="#000000" stroke-width="3.75" stroke-opacity="1"></use></g></g><g><use xlink:href="#cgdNxyMVg" opacity="1" fill="#6d594e" fill-opacity="1"></use><g><use xlink:href="#cgdNxyMVg" opacity="1" fill-opacity="0" stroke="#000000" stroke-width="1.88" stroke-opacity="1"></use></g></g><g><use xlink:href="#b8a72BXvI" opacity="1" fill="#53443b" fill-opacity="1"></use><g><use xlink:href="#b8a72BXvI" opacity="1" fill-opacity="0" stroke="#000000" stroke-width="1" stroke-opacity="0"></use></g></g><g><use xlink:href="#apxJB6ost" opacity="1" fill="#000000" fill-opacity="0"></use><g><use xlink:href="#apxJB6ost" opacity="1" fill-opacity="0" stroke="#000000" stroke-width="3.75" stroke-opacity="1"></use></g></g><g><use xlink:href="#b6tEYh2gxP" opacity="1" fill="#000000" fill-opacity="0"></use><g><use xlink:href="#b6tEYh2gxP" opacity="1" fill-opacity="0" stroke="#000000" stroke-width="3.75" stroke-opacity="1"></use></g></g><g><use xlink:href="#b2ryD8i6aJ" opacity="1" fill="url(#gradientcmpFv8NEH)"></use><g><use xlink:href="#b2ryD8i6aJ" opacity="1" fill-opacity="0" stroke="#000000" stroke-width="1" stroke-opacity="0"></use></g></g><g><use xlink:href="#accIfq884T" opacity="1" fill="#000000" fill-opacity="0"></use><g><use xlink:href="#accIfq884T" opacity="1" fill-opacity="0" stroke="#000000" stroke-width="3.75" stroke-opacity="1"></use></g></g><g><use xlink:href="#b1HtOyzmqv" opacity="1" fill="#c28e7e" fill-opacity="1"></use><g><use xlink:href="#b1HtOyzmqv" opacity="1" fill-opacity="0" stroke="#000000" stroke-width="3.75" stroke-opacity="1"></use></g></g><g><use xlink:href="#d4NtPpuMIK" opacity="1" fill="url(#gradientd2V33CMNCu)"></use><g><use xlink:href="#d4NtPpuMIK" opacity="1" fill-opacity="0" stroke="#000000" stroke-width="1" stroke-opacity="0"></use></g></g><g><use xlink:href="#b1jZMrANN" opacity="1" fill="url(#gradientc1CxTPOejC)"></use><g><use xlink:href="#b1jZMrANN" opacity="1" fill-opacity="0" stroke="#000000" stroke-width="1" stroke-opacity="0"></use></g></g><g><use xlink:href="#beO2Osb1x" opacity="1" fill="url(#gradientgHZ76LNoU)"></use><g><use xlink:href="#beO2Osb1x" opacity="1" fill-opacity="0" stroke="#000000" stroke-width="1" stroke-opacity="0"></use></g></g><g><g><filter id="shadow75594" x="-1.64" y="210.89" width="339" height="265.6" filterUnits="userSpaceOnUse" primitiveUnits="userSpaceOnUse"><feFlood></feFlood><feComposite in2="SourceAlpha" operator="in"></feComposite><feGaussianBlur stdDeviation="1"></feGaussianBlur><feOffset dx="1" dy="1" result="afterOffset"></feOffset><feFlood flood-color="#000000" flood-opacity="0.5"></feFlood><feComposite in2="afterOffset" operator="in"></feComposite><feMorphology operator="dilate" radius="1"></feMorphology><feComposite in2="SourceAlpha" operator="out"></feComposite></filter><path d="M51.01 228.84C53.21 221.16 58.15 218.43 65.83 220.63C217.38 264.08 301.57 288.22 318.41 293.05C326.08 295.25 328.82 300.19 326.62 307.87C300.87 397.67 286.56 447.56 283.7 457.54C281.5 465.22 276.56 467.96 268.89 465.76C117.34 422.3 33.14 398.16 16.3 393.33C8.63 391.13 5.89 386.19 8.09 378.52C33.84 288.71 48.15 238.82 51.01 228.84Z" id="d2dGJdbigw" fill="white" fill-opacity="1" filter="url(#shadow75594)"></path></g><use xlink:href="#a6dNaiwY8p" opacity="1" fill="#ffffff" fill-opacity="1"></use><g><use xlink:href="#a6dNaiwY8p" opacity="1" fill-opacity="0" stroke="#000000" stroke-width="1" stroke-opacity="0"></use></g></g><g><use xlink:href="#e36K8QU5B" opacity="1" fill="#88cab7" fill-opacity="1"></use><g><use xlink:href="#e36K8QU5B" opacity="1" fill-opacity="0" stroke="#000000" stroke-width="1" stroke-opacity="0"></use></g></g><g><use xlink:href="#c7DXO0w5I2" opacity="1" fill="#f28e37" fill-opacity="1"></use><g><use xlink:href="#c7DXO0w5I2" opacity="1" fill-opacity="0" stroke="#000000" stroke-width="1" stroke-opacity="0"></use></g></g><g><use xlink:href="#c2ue7qJcsf" opacity="1" fill="#932d5b" fill-opacity="1"></use><g><use xlink:href="#c2ue7qJcsf" opacity="1" fill-opacity="0" stroke="#000000" stroke-width="1" stroke-opacity="0"></use></g></g><g><use xlink:href="#b1K8xvazJ7" opacity="1" fill="#ffffff" fill-opacity="1"></use><g><use xlink:href="#b1K8xvazJ7" opacity="1" fill-opacity="0" stroke="#000000" stroke-width="1" stroke-opacity="0"></use></g></g><g><use xlink:href="#bSgqA99ma" opacity="1" fill="#c4c4c4" fill-opacity="1"></use><g><use xlink:href="#bSgqA99ma" opacity="1" fill-opacity="0" stroke="#000000" stroke-width="1" stroke-opacity="0"></use></g></g><g><use xlink:href="#b9kxGLmTR" opacity="1" fill="#db9977" fill-opacity="1"></use><g><use xlink:href="#b9kxGLmTR" opacity="1" fill-opacity="0" stroke="#000000" stroke-width="3.75" stroke-opacity="1"></use></g></g><g><use xlink:href="#c5g7lPQAKm" opacity="1" fill="none" fill-opacity="1"></use><g><use xlink:href="#c5g7lPQAKm" opacity="1" fill-opacity="0" stroke="#000000" stroke-width="3.75" stroke-opacity="1"></use></g></g><g><use xlink:href="#bfQhNxwZB" opacity="1" fill="#000000" fill-opacity="0"></use><g><use xlink:href="#bfQhNxwZB" opacity="1" fill-opacity="0" stroke="#000000" stroke-width="3.75" stroke-opacity="1"></use></g></g><g><use xlink:href="#b85QvZWVh" opacity="1" fill="#000000" fill-opacity="0"></use><g><use xlink:href="#b85QvZWVh" opacity="1" fill-opacity="0" stroke="#000000" stroke-width="3.75" stroke-opacity="1"></use></g></g></g></g></svg>