<svg width="403" height="261" viewBox="0 0 403 261" fill="none" xmlns="http://www.w3.org/2000/svg">
<g filter="url(#filter0_d)">
<rect x="6" y="247" width="240" height="383" rx="16" transform="rotate(-90 6 247)" fill="white"/>
<path d="M6 83H45C45 83 31.6557 92.8284 23.9524 99.7606C16.4209 106.538 10.3998 112.87 6 118V83Z" fill="#88CAB7"/>
<path fill-rule="evenodd" clip-rule="evenodd" d="M321.5 52C350.814 70.6709 389 110 389 110L389 22.5C389 13.6634 381.837 6.5 373 6.5L198.672 6.5C211.855 9.58773 281.873 26.7608 321.5 52Z" fill="#F28E37"/>
<path fill-rule="evenodd" clip-rule="evenodd" d="M6.00003 99.3934C6.00003 99.3934 69.9306 73.284 127.838 73.284C164.937 73.284 218.93 92.0214 249.198 102.525C260.384 106.407 268.33 109.164 270.983 109.435C280.818 110.44 287.374 99.3934 287.374 99.3934L335.482 6.5H22C13.1681 6.5 6.00759 13.6559 6.00001 22.486C6 22.4906 6 22.4953 6 22.5L6.00003 99.3934Z" fill="#932D5B"/>
<path d="M48.8284 55V35.2973H53.0062V51.55H60.9978V55H48.8284ZM75.9196 55H64.5723V35.2973H75.9196V38.7203H68.75V43.0463H75.4209V46.4693H68.75V51.55H75.9196V55ZM91.5287 55H80.1814V35.2973H91.5287V38.7203H84.3591V43.0463H91.03V46.4693H84.3591V51.55H91.5287V55ZM99.9682 44.0436H101.316C102.637 44.0436 103.611 43.8234 104.24 43.3832C104.869 42.943 105.184 42.2512 105.184 41.3078C105.184 40.3734 104.86 39.7086 104.213 39.3133C103.575 38.918 102.583 38.7203 101.235 38.7203H99.9682V44.0436ZM99.9682 47.4396V55H95.7905V35.2973H101.532C104.209 35.2973 106.19 35.7869 107.475 36.7662C108.759 37.7365 109.402 39.2145 109.402 41.2C109.402 42.359 109.083 43.3922 108.445 44.2996C107.807 45.198 106.904 45.9033 105.736 46.4154C108.701 50.8447 110.633 53.7062 111.531 55H106.895L102.192 47.4396H99.9682ZM114.149 55V35.2973H118.327V51.55H126.318V55H114.149ZM129.893 55V35.2973H134.07V55H129.893ZM156.647 55H151.337L142.766 40.0949H142.645C142.815 42.7273 142.901 44.6051 142.901 45.7281V55H139.168V35.2973H144.437L152.995 50.0541H153.089C152.954 47.4936 152.887 45.6832 152.887 44.623V35.2973H156.647V55ZM169.237 43.9357H177.054V54.151C175.787 54.5643 174.592 54.8518 173.469 55.0135C172.355 55.1842 171.214 55.2695 170.046 55.2695C167.072 55.2695 164.799 54.398 163.227 52.6551C161.663 50.9031 160.882 48.392 160.882 45.1217C160.882 41.9412 161.789 39.4615 163.604 37.6826C165.428 35.9037 167.952 35.0143 171.178 35.0143C173.199 35.0143 175.149 35.4186 177.027 36.2271L175.639 39.5693C174.201 38.8506 172.705 38.4912 171.151 38.4912C169.345 38.4912 167.899 39.0977 166.811 40.3105C165.724 41.5234 165.181 43.1541 165.181 45.2025C165.181 47.3408 165.617 48.976 166.488 50.108C167.368 51.2311 168.644 51.7926 170.315 51.7926C171.187 51.7926 172.072 51.7027 172.97 51.523V47.4127H169.237V43.9357ZM193.242 55H181.895V35.2973H193.242V38.7203H186.073V43.0463H192.744V46.4693H186.073V51.55H193.242V55ZM214.983 55H209.673L201.102 40.0949H200.981C201.152 42.7273 201.237 44.6051 201.237 45.7281V55H197.504V35.2973H202.773L211.331 50.0541H211.425C211.291 47.4936 211.223 45.6832 211.223 44.623V35.2973H214.983V55ZM232.263 40.9574C232.263 42.8621 231.616 44.3221 230.323 45.3373C229.029 46.3525 227.196 46.8602 224.824 46.8602H221.779V55H220.404V35.2973H225.229C229.918 35.2973 232.263 37.184 232.263 40.9574ZM221.779 45.6742H224.487C226.706 45.6742 228.31 45.3104 229.298 44.5826C230.287 43.8459 230.781 42.6555 230.781 41.0113C230.781 39.493 230.314 38.3699 229.379 37.6422C228.445 36.9055 226.998 36.5371 225.04 36.5371H221.779V45.6742ZM246.174 48.0461H238.169L235.42 55H233.897L241.821 35.2164H242.697L250.46 55H248.91L246.174 48.0461ZM238.668 46.8062H245.716L243.034 39.7041C242.81 39.1471 242.54 38.3744 242.226 37.3861C241.983 38.2486 241.718 39.0303 241.431 39.7311L238.668 46.8062ZM264.277 49.9193C264.277 51.5635 263.67 52.8662 262.457 53.8275C261.253 54.7889 259.65 55.2695 257.646 55.2695C255.238 55.2695 253.392 55.0045 252.107 54.4744V53.0998C253.527 53.7018 255.337 54.0027 257.538 54.0027C259.156 54.0027 260.436 53.6344 261.379 52.8977C262.332 52.152 262.808 51.1771 262.808 49.9732C262.808 49.2275 262.65 48.6121 262.336 48.127C262.022 47.6328 261.509 47.1836 260.8 46.7793C260.09 46.375 259.048 45.9393 257.673 45.4721C255.661 44.7803 254.268 44.0346 253.495 43.235C252.732 42.4264 252.35 41.3527 252.35 40.0141C252.35 38.5406 252.925 37.3412 254.075 36.4158C255.234 35.4814 256.721 35.0143 258.536 35.0143C260.386 35.0143 262.125 35.3646 263.751 36.0654L263.252 37.2514C261.617 36.5686 260.054 36.2271 258.563 36.2271C257.107 36.2271 255.948 36.5641 255.086 37.2379C254.223 37.9117 253.792 38.8281 253.792 39.9871C253.792 40.7148 253.922 41.3123 254.183 41.7795C254.452 42.2467 254.888 42.6689 255.49 43.0463C256.092 43.4146 257.125 43.8594 258.59 44.3805C260.126 44.9105 261.28 45.4271 262.053 45.9303C262.826 46.4244 263.387 46.9904 263.738 47.6283C264.097 48.2572 264.277 49.0209 264.277 49.9193Z" fill="white"/>
<path d="M84 151.583C88.8333 151.583 92.75 155.5 92.75 160.333C92.75 165.167 88.8333 169.083 84 169.083C79.1667 169.083 75.25 165.167 75.25 160.333C75.25 155.5 79.1667 151.583 84 151.583ZM84 189.083C96.375 189.083 109.417 195.167 109.417 197.833V202.417H58.5833V197.833C58.5833 195.167 71.625 189.083 84 189.083ZM84 143.667C74.7917 143.667 67.3333 151.125 67.3333 160.333C67.3333 169.542 74.7917 177 84 177C93.2083 177 100.667 169.542 100.667 160.333C100.667 151.125 93.2083 143.667 84 143.667ZM84 181.167C72.875 181.167 50.6667 186.75 50.6667 197.833V210.333H117.333V197.833C117.333 186.75 95.125 181.167 84 181.167Z" fill="#C4C4C4"/>
</g>
<defs>
<filter id="filter0_d" x="0" y="0.5" width="403" height="260.5" filterUnits="userSpaceOnUse" color-interpolation-filters="sRGB">
<feFlood flood-opacity="0" result="BackgroundImageFix"/>
<feColorMatrix in="SourceAlpha" type="matrix" values="0 0 0 0 0 0 0 0 0 0 0 0 0 0 0 0 0 0 127 0"/>
<feOffset dx="4" dy="4"/>
<feGaussianBlur stdDeviation="5"/>
<feColorMatrix type="matrix" values="0 0 0 0 0 0 0 0 0 0 0 0 0 0 0 0 0 0 0.25 0"/>
<feBlend mode="normal" in2="BackgroundImageFix" result="effect1_dropShadow"/>
<feBlend mode="normal" in="SourceGraphic" in2="effect1_dropShadow" result="shape"/>
</filter>
</defs>
</svg>
