<svg width="1280" height="720" viewBox="0 0 1280 720" fill="none" xmlns="http://www.w3.org/2000/svg">
<g clip-path="url(#clip0)">
<rect width="1280" height="720" fill="white"/>
<g filter="url(#filter0_d)">
<rect width="229" height="720" fill="#E5E5E5"/>
</g>
<rect x="40" y="44" width="150" height="150" rx="10" fill="#C4C4C4"/>
<path d="M99 82.3333H91C89.5333 82.3333 88.3333 83.5333 88.3333 85V117C88.3333 118.467 89.5333 119.667 91 119.667H99C100.467 119.667 101.667 118.467 101.667 117V85C101.667 83.5333 100.467 82.3333 99 82.3333ZM136.333 82.3333H128.333C126.867 82.3333 125.667 83.5333 125.667 85V117C125.667 118.467 126.867 119.667 128.333 119.667H136.333C137.8 119.667 139 118.467 139 117V85C139 83.5333 137.8 82.3333 136.333 82.3333ZM117.667 82.3333H109.667C108.2 82.3333 107 83.5333 107 85V117C107 118.467 108.2 119.667 109.667 119.667H117.667C119.133 119.667 120.333 118.467 120.333 117V85C120.333 83.5333 119.133 82.3333 117.667 82.3333Z" fill="#424242"/>
<path d="M83.0156 161.828L83.4531 164.828L84.0938 162.125L88.5938 146.25H91.125L95.5156 162.125L96.1406 164.875L96.625 161.812L100.156 146.25H103.172L97.6562 169H94.9219L90.2344 152.422L89.875 150.688L89.5156 152.422L84.6562 169H81.9219L76.4219 146.25H79.4219L83.0156 161.828ZM112.578 169.312C110.286 169.312 108.422 168.562 106.984 167.062C105.547 165.552 104.828 163.536 104.828 161.016V160.484C104.828 158.807 105.146 157.312 105.781 156C106.427 154.677 107.323 153.646 108.469 152.906C109.625 152.156 110.875 151.781 112.219 151.781C114.417 151.781 116.125 152.505 117.344 153.953C118.562 155.401 119.172 157.474 119.172 160.172V161.375H107.719C107.76 163.042 108.245 164.391 109.172 165.422C110.109 166.443 111.297 166.953 112.734 166.953C113.755 166.953 114.62 166.745 115.328 166.328C116.036 165.911 116.656 165.359 117.188 164.672L118.953 166.047C117.536 168.224 115.411 169.312 112.578 169.312ZM112.219 154.156C111.052 154.156 110.073 154.583 109.281 155.438C108.49 156.281 108 157.469 107.812 159H116.281V158.781C116.198 157.312 115.802 156.177 115.094 155.375C114.385 154.562 113.427 154.156 112.219 154.156ZM129.547 169.312C127.255 169.312 125.391 168.562 123.953 167.062C122.516 165.552 121.797 163.536 121.797 161.016V160.484C121.797 158.807 122.115 157.312 122.75 156C123.396 154.677 124.292 153.646 125.438 152.906C126.594 152.156 127.844 151.781 129.188 151.781C131.385 151.781 133.094 152.505 134.312 153.953C135.531 155.401 136.141 157.474 136.141 160.172V161.375H124.688C124.729 163.042 125.214 164.391 126.141 165.422C127.078 166.443 128.266 166.953 129.703 166.953C130.724 166.953 131.589 166.745 132.297 166.328C133.005 165.911 133.625 165.359 134.156 164.672L135.922 166.047C134.505 168.224 132.38 169.312 129.547 169.312ZM129.188 154.156C128.021 154.156 127.042 154.583 126.25 155.438C125.458 156.281 124.969 157.469 124.781 159H133.25V158.781C133.167 157.312 132.771 156.177 132.062 155.375C131.354 154.562 130.396 154.156 129.188 154.156ZM144.219 161.172L142.406 163.062V169H139.516V145H142.406V159.516L143.953 157.656L149.219 152.094H152.734L146.156 159.156L153.5 169H150.109L144.219 161.172Z" fill="#424242"/>
<path d="M124.667 613.333V605.333H106V594.667H124.667V586.667L138 600L124.667 613.333ZM119.333 573.333C120.748 573.333 122.104 573.895 123.105 574.895C124.105 575.896 124.667 577.252 124.667 578.667V584H119.333V578.667H95.3333V621.333H119.333V616H124.667V621.333C124.667 622.748 124.105 624.104 123.105 625.105C122.104 626.105 120.748 626.667 119.333 626.667H95.3333C93.9188 626.667 92.5623 626.105 91.5621 625.105C90.5619 624.104 90 622.748 90 621.333V578.667C90 577.252 90.5619 575.896 91.5621 574.895C92.5623 573.895 93.9188 573.333 95.3333 573.333H119.333Z" fill="#424242"/>
<path d="M71.5156 673.547H82.2969V676H68.5V653.25H71.5156V673.547ZM84.5 667.391C84.5 665.734 84.8229 664.245 85.4688 662.922C86.125 661.599 87.0312 660.578 88.1875 659.859C89.3542 659.141 90.6823 658.781 92.1719 658.781C94.474 658.781 96.3333 659.578 97.75 661.172C99.1771 662.766 99.8906 664.885 99.8906 667.531V667.734C99.8906 669.38 99.5729 670.859 98.9375 672.172C98.3125 673.474 97.4115 674.49 96.2344 675.219C95.0677 675.948 93.724 676.312 92.2031 676.312C89.9115 676.312 88.0521 675.516 86.625 673.922C85.2083 672.328 84.5 670.219 84.5 667.594V667.391ZM87.4062 667.734C87.4062 669.609 87.8385 671.115 88.7031 672.25C89.5781 673.385 90.7448 673.953 92.2031 673.953C93.6719 673.953 94.8385 673.38 95.7031 672.234C96.5677 671.078 97 669.464 97 667.391C97 665.536 96.5573 664.036 95.6719 662.891C94.7969 661.734 93.6302 661.156 92.1719 661.156C90.7448 661.156 89.5938 661.724 88.7188 662.859C87.8438 663.995 87.4062 665.62 87.4062 667.734ZM102.828 667.406C102.828 664.771 103.438 662.677 104.656 661.125C105.875 659.562 107.49 658.781 109.5 658.781C111.562 658.781 113.172 659.51 114.328 660.969L114.469 659.094H117.109V675.594C117.109 677.781 116.458 679.505 115.156 680.766C113.865 682.026 112.125 682.656 109.938 682.656C108.719 682.656 107.526 682.396 106.359 681.875C105.193 681.354 104.302 680.641 103.688 679.734L105.188 678C106.427 679.531 107.943 680.297 109.734 680.297C111.141 680.297 112.234 679.901 113.016 679.109C113.807 678.318 114.203 677.203 114.203 675.766V674.312C113.047 675.646 111.469 676.312 109.469 676.312C107.49 676.312 105.885 675.516 104.656 673.922C103.438 672.328 102.828 670.156 102.828 667.406ZM105.734 667.734C105.734 669.641 106.125 671.141 106.906 672.234C107.688 673.318 108.781 673.859 110.188 673.859C112.01 673.859 113.349 673.031 114.203 671.375V663.656C113.318 662.042 111.99 661.234 110.219 661.234C108.812 661.234 107.714 661.781 106.922 662.875C106.13 663.969 105.734 665.589 105.734 667.734ZM139.859 674.328C138.734 675.651 137.083 676.312 134.906 676.312C133.104 676.312 131.729 675.792 130.781 674.75C129.844 673.698 129.37 672.146 129.359 670.094V659.094H132.25V670.016C132.25 672.578 133.292 673.859 135.375 673.859C137.583 673.859 139.052 673.036 139.781 671.391V659.094H142.672V676H139.922L139.859 674.328ZM150.219 676H147.328V659.094H150.219V676ZM147.094 654.609C147.094 654.141 147.234 653.745 147.516 653.422C147.807 653.099 148.234 652.938 148.797 652.938C149.359 652.938 149.786 653.099 150.078 653.422C150.37 653.745 150.516 654.141 150.516 654.609C150.516 655.078 150.37 655.469 150.078 655.781C149.786 656.094 149.359 656.25 148.797 656.25C148.234 656.25 147.807 656.094 147.516 655.781C147.234 655.469 147.094 655.078 147.094 654.609ZM158.781 655V659.094H161.938V661.328H158.781V671.812C158.781 672.49 158.922 673 159.203 673.344C159.484 673.677 159.964 673.844 160.641 673.844C160.974 673.844 161.432 673.781 162.016 673.656V676C161.255 676.208 160.516 676.312 159.797 676.312C158.505 676.312 157.531 675.922 156.875 675.141C156.219 674.359 155.891 673.25 155.891 671.812V661.328H152.812V659.094H155.891V655H158.781Z" fill="#424242"/>
</g>
<defs>
<filter id="filter0_d" x="0" y="-4" width="237" height="728" filterUnits="userSpaceOnUse" color-interpolation-filters="sRGB">
<feFlood flood-opacity="0" result="BackgroundImageFix"/>
<feColorMatrix in="SourceAlpha" type="matrix" values="0 0 0 0 0 0 0 0 0 0 0 0 0 0 0 0 0 0 127 0"/>
<feOffset dx="4"/>
<feGaussianBlur stdDeviation="2"/>
<feColorMatrix type="matrix" values="0 0 0 0 0 0 0 0 0 0 0 0 0 0 0 0 0 0 0.25 0"/>
<feBlend mode="normal" in2="BackgroundImageFix" result="effect1_dropShadow"/>
<feBlend mode="normal" in="SourceGraphic" in2="effect1_dropShadow" result="shape"/>
</filter>
<clipPath id="clip0">
<rect width="1280" height="720" fill="white"/>
</clipPath>
</defs>
</svg>
