<svg width="1280" height="720" viewBox="0 0 1280 720" fill="none" xmlns="http://www.w3.org/2000/svg">
<g clip-path="url(#clip0)">
<rect width="1280" height="720" fill="white"/>
<path d="M1174.39 354.667H1110.33V365.333H1174.39V381.333L1195.67 360L1174.39 338.667V354.667Z" fill="#424242"/>
<g filter="url(#filter0_d)">
<rect x="640" y="484" width="240" height="383" rx="16" transform="rotate(-90 640 484)" fill="white"/>
<path d="M640 320H679C679 320 665.656 329.828 657.952 336.761C650.421 343.538 644.4 349.87 640 355V320Z" fill="#88CAB7"/>
<path fill-rule="evenodd" clip-rule="evenodd" d="M955.5 289C984.814 307.671 1023 347 1023 347L1023 259.5C1023 250.663 1015.84 243.5 1007 243.5L832.672 243.5C845.855 246.588 915.873 263.761 955.5 289Z" fill="#F28E37"/>
<path fill-rule="evenodd" clip-rule="evenodd" d="M640 336.393C640 336.393 703.931 310.284 761.838 310.284C798.937 310.284 852.93 329.021 883.198 339.525C894.384 343.407 902.33 346.164 904.983 346.435C914.818 347.44 921.374 336.393 921.374 336.393L969.482 243.5H656C647.168 243.5 640.008 250.656 640 259.486C640 259.491 640 259.495 640 259.5L640 336.393Z" fill="#932D5B"/>
<path d="M682.828 292V272.297H687.006V288.55H694.998V292H682.828ZM709.92 292H698.572V272.297H709.92V275.72H702.75V280.046H709.421V283.469H702.75V288.55H709.92V292ZM725.529 292H714.181V272.297H725.529V275.72H718.359V280.046H725.03V283.469H718.359V288.55H725.529V292ZM733.968 281.044H735.316C736.637 281.044 737.611 280.823 738.24 280.383C738.869 279.943 739.184 279.251 739.184 278.308C739.184 277.373 738.86 276.709 738.213 276.313C737.575 275.918 736.583 275.72 735.235 275.72H733.968V281.044ZM733.968 284.44V292H729.79V272.297H735.532C738.209 272.297 740.19 272.787 741.475 273.766C742.759 274.737 743.402 276.214 743.402 278.2C743.402 279.359 743.083 280.392 742.445 281.3C741.807 282.198 740.904 282.903 739.736 283.415C742.701 287.845 744.633 290.706 745.531 292H740.895L736.192 284.44H733.968ZM748.149 292V272.297H752.327V288.55H760.318V292H748.149ZM763.893 292V272.297H768.07V292H763.893ZM790.647 292H785.337L776.766 277.095H776.645C776.815 279.727 776.901 281.605 776.901 282.728V292H773.168V272.297H778.437L786.995 287.054H787.089C786.954 284.494 786.887 282.683 786.887 281.623V272.297H790.647V292ZM803.237 280.936H811.054V291.151C809.787 291.564 808.592 291.852 807.469 292.013C806.355 292.184 805.214 292.27 804.046 292.27C801.072 292.27 798.799 291.398 797.227 289.655C795.663 287.903 794.882 285.392 794.882 282.122C794.882 278.941 795.789 276.462 797.604 274.683C799.428 272.904 801.952 272.014 805.178 272.014C807.199 272.014 809.149 272.419 811.027 273.227L809.639 276.569C808.201 275.851 806.705 275.491 805.151 275.491C803.345 275.491 801.899 276.098 800.811 277.311C799.724 278.523 799.181 280.154 799.181 282.203C799.181 284.341 799.617 285.976 800.488 287.108C801.368 288.231 802.644 288.793 804.315 288.793C805.187 288.793 806.072 288.703 806.97 288.523V284.413H803.237V280.936ZM827.242 292H815.895V272.297H827.242V275.72H820.073V280.046H826.744V283.469H820.073V288.55H827.242V292ZM848.983 292H843.673L835.102 277.095H834.981C835.152 279.727 835.237 281.605 835.237 282.728V292H831.504V272.297H836.773L845.331 287.054H845.425C845.291 284.494 845.223 282.683 845.223 281.623V272.297H848.983V292ZM866.263 277.957C866.263 279.862 865.616 281.322 864.323 282.337C863.029 283.353 861.196 283.86 858.824 283.86H855.779V292H854.404V272.297H859.229C863.918 272.297 866.263 274.184 866.263 277.957ZM855.779 282.674H858.487C860.706 282.674 862.31 282.31 863.298 281.583C864.287 280.846 864.781 279.655 864.781 278.011C864.781 276.493 864.314 275.37 863.379 274.642C862.445 273.905 860.998 273.537 859.04 273.537H855.779V282.674ZM880.174 285.046H872.169L869.42 292H867.897L875.821 272.216H876.697L884.46 292H882.91L880.174 285.046ZM872.668 283.806H879.716L877.034 276.704C876.81 276.147 876.54 275.374 876.226 274.386C875.983 275.249 875.718 276.03 875.431 276.731L872.668 283.806ZM898.277 286.919C898.277 288.563 897.67 289.866 896.457 290.828C895.253 291.789 893.65 292.27 891.646 292.27C889.238 292.27 887.392 292.004 886.107 291.474V290.1C887.527 290.702 889.337 291.003 891.538 291.003C893.156 291.003 894.436 290.634 895.379 289.898C896.332 289.152 896.808 288.177 896.808 286.973C896.808 286.228 896.65 285.612 896.336 285.127C896.022 284.633 895.509 284.184 894.8 283.779C894.09 283.375 893.048 282.939 891.673 282.472C889.661 281.78 888.268 281.035 887.495 280.235C886.732 279.426 886.35 278.353 886.35 277.014C886.35 275.541 886.925 274.341 888.075 273.416C889.234 272.481 890.721 272.014 892.536 272.014C894.386 272.014 896.125 272.365 897.751 273.065L897.252 274.251C895.617 273.569 894.054 273.227 892.563 273.227C891.107 273.227 889.948 273.564 889.086 274.238C888.223 274.912 887.792 275.828 887.792 276.987C887.792 277.715 887.922 278.312 888.183 278.779C888.452 279.247 888.888 279.669 889.49 280.046C890.092 280.415 891.125 280.859 892.59 281.38C894.126 281.911 895.28 282.427 896.053 282.93C896.826 283.424 897.387 283.99 897.738 284.628C898.097 285.257 898.277 286.021 898.277 286.919Z" fill="white"/>
<path d="M718 388.583C722.833 388.583 726.75 392.5 726.75 397.333C726.75 402.167 722.833 406.083 718 406.083C713.167 406.083 709.25 402.167 709.25 397.333C709.25 392.5 713.167 388.583 718 388.583ZM718 426.083C730.375 426.083 743.417 432.167 743.417 434.833V439.417H692.583V434.833C692.583 432.167 705.625 426.083 718 426.083ZM718 380.667C708.792 380.667 701.333 388.125 701.333 397.333C701.333 406.542 708.792 414 718 414C727.208 414 734.667 406.542 734.667 397.333C734.667 388.125 727.208 380.667 718 380.667ZM718 418.167C706.875 418.167 684.667 423.75 684.667 434.833V447.333H751.333V434.833C751.333 423.75 729.125 418.167 718 418.167Z" fill="#C4C4C4"/>
</g>
<g filter="url(#filter1_d)">
<rect width="1280" height="51" fill="#DCDCDC"/>
</g>
<path d="M1233 13C1227.39 13 1221.93 14.88 1217.51 18.3333C1222.88 25.08 1227.52 30.8267 1233 37.6667C1238.44 30.8933 1243.99 23.9867 1248.53 18.3333C1244.09 14.88 1238.63 13 1233 13ZM1233 15.6667C1237.09 15.6667 1241.12 16.8133 1244.61 18.9333L1242.03 22.1733C1240.01 21 1236.84 19.6667 1233 19.6667C1229 19.6667 1225.91 21 1223.95 22.12L1221.36 18.92C1224.88 16.8 1228.91 15.6667 1233 15.6667Z" fill="black"/>
<path d="M558.414 16.9258V18.7656H558.016C556.328 18.7969 554.984 19.2969 553.984 20.2656C552.984 21.2344 552.406 22.5977 552.25 24.3555C553.148 23.3242 554.375 22.8086 555.93 22.8086C557.414 22.8086 558.598 23.332 559.48 24.3789C560.371 25.4258 560.816 26.7773 560.816 28.4336C560.816 30.1914 560.336 31.5977 559.375 32.6523C558.422 33.707 557.141 34.2344 555.531 34.2344C553.898 34.2344 552.574 33.6094 551.559 32.3594C550.543 31.1016 550.035 29.4844 550.035 27.5078V26.6758C550.035 23.5352 550.703 21.1367 552.039 19.4805C553.383 17.8164 555.379 16.9648 558.027 16.9258H558.414ZM555.566 24.6133C554.824 24.6133 554.141 24.8359 553.516 25.2812C552.891 25.7266 552.457 26.2852 552.215 26.957V27.7539C552.215 29.1602 552.531 30.293 553.164 31.1523C553.797 32.0117 554.586 32.4414 555.531 32.4414C556.508 32.4414 557.273 32.082 557.828 31.3633C558.391 30.6445 558.672 29.7031 558.672 28.5391C558.672 27.3672 558.387 26.4219 557.816 25.7031C557.254 24.9766 556.504 24.6133 555.566 24.6133ZM571.797 21.3203V35.4648C571.797 37.9023 570.691 39.1211 568.48 39.1211C568.004 39.1211 567.562 39.0508 567.156 38.9102V37.1758C567.406 37.2383 567.734 37.2695 568.141 37.2695C568.625 37.2695 568.992 37.1367 569.242 36.8711C569.5 36.6133 569.629 36.1602 569.629 35.5117V21.3203H571.797ZM569.406 17.957C569.406 17.6133 569.512 17.3203 569.723 17.0781C569.941 16.8281 570.258 16.7031 570.672 16.7031C571.094 16.7031 571.414 16.8242 571.633 17.0664C571.852 17.3086 571.961 17.6055 571.961 17.957C571.961 18.3086 571.852 18.6016 571.633 18.8359C571.414 19.0703 571.094 19.1875 570.672 19.1875C570.25 19.1875 569.934 19.0703 569.723 18.8359C569.512 18.6016 569.406 18.3086 569.406 17.957ZM583.129 32.7461C582.285 33.7383 581.047 34.2344 579.414 34.2344C578.062 34.2344 577.031 33.8438 576.32 33.0625C575.617 32.2734 575.262 31.1094 575.254 29.5703V21.3203H577.422V29.5117C577.422 31.4336 578.203 32.3945 579.766 32.3945C581.422 32.3945 582.523 31.7773 583.07 30.543V21.3203H585.238V34H583.176L583.129 32.7461ZM590.594 21.3203L590.664 22.9141C591.633 21.6953 592.898 21.0859 594.461 21.0859C597.141 21.0859 598.492 22.5977 598.516 25.6211V34H596.348V25.6094C596.34 24.6953 596.129 24.0195 595.715 23.582C595.309 23.1445 594.672 22.9258 593.805 22.9258C593.102 22.9258 592.484 23.1133 591.953 23.4883C591.422 23.8633 591.008 24.3555 590.711 24.9648V34H588.543V21.3203H590.594ZM604.141 34H601.973V21.3203H604.141V34ZM601.797 17.957C601.797 17.6055 601.902 17.3086 602.113 17.0664C602.332 16.8242 602.652 16.7031 603.074 16.7031C603.496 16.7031 603.816 16.8242 604.035 17.0664C604.254 17.3086 604.363 17.6055 604.363 17.957C604.363 18.3086 604.254 18.6016 604.035 18.8359C603.816 19.0703 603.496 19.1875 603.074 19.1875C602.652 19.1875 602.332 19.0703 602.113 18.8359C601.902 18.6016 601.797 18.3086 601.797 17.957ZM624.531 34H613.352V32.4414L619.258 25.8789C620.133 24.8867 620.734 24.082 621.062 23.4648C621.398 22.8398 621.566 22.1953 621.566 21.5312C621.566 20.6406 621.297 19.9102 620.758 19.3398C620.219 18.7695 619.5 18.4844 618.602 18.4844C617.523 18.4844 616.684 18.793 616.082 19.4102C615.488 20.0195 615.191 20.8711 615.191 21.9648H613.023C613.023 20.3945 613.527 19.125 614.535 18.1562C615.551 17.1875 616.906 16.7031 618.602 16.7031C620.188 16.7031 621.441 17.1211 622.363 17.957C623.285 18.7852 623.746 19.8906 623.746 21.2734C623.746 22.9531 622.676 24.9531 620.535 27.2734L615.965 32.2305H624.531V34ZM637.527 26.7227C637.527 29.2617 637.094 31.1484 636.227 32.3828C635.359 33.6172 634.004 34.2344 632.16 34.2344C630.34 34.2344 628.992 33.6328 628.117 32.4297C627.242 31.2188 626.789 29.4141 626.758 27.0156V24.1211C626.758 21.6133 627.191 19.75 628.059 18.5312C628.926 17.3125 630.285 16.7031 632.137 16.7031C633.973 16.7031 635.324 17.293 636.191 18.4727C637.059 19.6445 637.504 21.457 637.527 23.9102V26.7227ZM635.359 23.7578C635.359 21.9219 635.102 20.5859 634.586 19.75C634.07 18.9062 633.254 18.4844 632.137 18.4844C631.027 18.4844 630.219 18.9023 629.711 19.7383C629.203 20.5742 628.941 21.8594 628.926 23.5938V27.0625C628.926 28.9062 629.191 30.2695 629.723 31.1523C630.262 32.0273 631.074 32.4648 632.16 32.4648C633.23 32.4648 634.023 32.0508 634.539 31.2227C635.062 30.3945 635.336 29.0898 635.359 27.3086V23.7578ZM651.484 34H640.305V32.4414L646.211 25.8789C647.086 24.8867 647.688 24.082 648.016 23.4648C648.352 22.8398 648.52 22.1953 648.52 21.5312C648.52 20.6406 648.25 19.9102 647.711 19.3398C647.172 18.7695 646.453 18.4844 645.555 18.4844C644.477 18.4844 643.637 18.793 643.035 19.4102C642.441 20.0195 642.145 20.8711 642.145 21.9648H639.977C639.977 20.3945 640.48 19.125 641.488 18.1562C642.504 17.1875 643.859 16.7031 645.555 16.7031C647.141 16.7031 648.395 17.1211 649.316 17.957C650.238 18.7852 650.699 19.8906 650.699 21.2734C650.699 22.9531 649.629 24.9531 647.488 27.2734L642.918 32.2305H651.484V34ZM664.48 26.7227C664.48 29.2617 664.047 31.1484 663.18 32.3828C662.312 33.6172 660.957 34.2344 659.113 34.2344C657.293 34.2344 655.945 33.6328 655.07 32.4297C654.195 31.2188 653.742 29.4141 653.711 27.0156V24.1211C653.711 21.6133 654.145 19.75 655.012 18.5312C655.879 17.3125 657.238 16.7031 659.09 16.7031C660.926 16.7031 662.277 17.293 663.145 18.4727C664.012 19.6445 664.457 21.457 664.48 23.9102V26.7227ZM662.312 23.7578C662.312 21.9219 662.055 20.5859 661.539 19.75C661.023 18.9062 660.207 18.4844 659.09 18.4844C657.98 18.4844 657.172 18.9023 656.664 19.7383C656.156 20.5742 655.895 21.8594 655.879 23.5938V27.0625C655.879 28.9062 656.145 30.2695 656.676 31.1523C657.215 32.0273 658.027 32.4648 659.113 32.4648C660.184 32.4648 660.977 32.0508 661.492 31.2227C662.016 30.3945 662.289 29.0898 662.312 27.3086V23.7578ZM680.336 34H678.156V19.5508L673.785 21.1562V19.1875L679.996 16.8555H680.336V34ZM695.84 28.2695H698.207V30.0391H695.84V34H693.66V30.0391H685.891V28.7617L693.531 16.9375H695.84V28.2695ZM688.352 28.2695H693.66V19.9023L693.402 20.3711L688.352 28.2695ZM700.316 32.8633C700.316 32.4883 700.426 32.1758 700.645 31.9258C700.871 31.6758 701.207 31.5508 701.652 31.5508C702.098 31.5508 702.434 31.6758 702.66 31.9258C702.895 32.1758 703.012 32.4883 703.012 32.8633C703.012 33.2227 702.895 33.5234 702.66 33.7656C702.434 34.0078 702.098 34.1289 701.652 34.1289C701.207 34.1289 700.871 34.0078 700.645 33.7656C700.426 33.5234 700.316 33.2227 700.316 32.8633ZM700.328 22.5156C700.328 22.1406 700.438 21.8281 700.656 21.5781C700.883 21.3281 701.219 21.2031 701.664 21.2031C702.109 21.2031 702.445 21.3281 702.672 21.5781C702.906 21.8281 703.023 22.1406 703.023 22.5156C703.023 22.875 702.906 23.1758 702.672 23.418C702.445 23.6602 702.109 23.7812 701.664 23.7812C701.219 23.7812 700.883 23.6602 700.656 23.418C700.438 23.1758 700.328 22.875 700.328 22.5156ZM709.129 24.4141H710.758C711.781 24.3984 712.586 24.1289 713.172 23.6055C713.758 23.082 714.051 22.375 714.051 21.4844C714.051 19.4844 713.055 18.4844 711.062 18.4844C710.125 18.4844 709.375 18.7539 708.812 19.293C708.258 19.8242 707.98 20.5312 707.98 21.4141H705.812C705.812 20.0625 706.305 18.9414 707.289 18.0508C708.281 17.1523 709.539 16.7031 711.062 16.7031C712.672 16.7031 713.934 17.1289 714.848 17.9805C715.762 18.832 716.219 20.0156 716.219 21.5312C716.219 22.2734 715.977 22.9922 715.492 23.6875C715.016 24.3828 714.363 24.9023 713.535 25.2461C714.473 25.543 715.195 26.0352 715.703 26.7227C716.219 27.4102 716.477 28.25 716.477 29.2422C716.477 30.7734 715.977 31.9883 714.977 32.8867C713.977 33.7852 712.676 34.2344 711.074 34.2344C709.473 34.2344 708.168 33.8008 707.16 32.9336C706.16 32.0664 705.66 30.9219 705.66 29.5H707.84C707.84 30.3984 708.133 31.1172 708.719 31.6562C709.305 32.1953 710.09 32.4648 711.074 32.4648C712.121 32.4648 712.922 32.1914 713.477 31.6445C714.031 31.0977 714.309 30.3125 714.309 29.2891C714.309 28.2969 714.004 27.5352 713.395 27.0039C712.785 26.4727 711.906 26.1992 710.758 26.1836H709.129V24.4141ZM720.449 25.4453L721.316 16.9375H730.059V18.9414H723.156L722.641 23.5938C723.477 23.1016 724.426 22.8555 725.488 22.8555C727.043 22.8555 728.277 23.3711 729.191 24.4023C730.105 25.4258 730.562 26.8125 730.562 28.5625C730.562 30.3203 730.086 31.707 729.133 32.7227C728.188 33.7305 726.863 34.2344 725.16 34.2344C723.652 34.2344 722.422 33.8164 721.469 32.9805C720.516 32.1445 719.973 30.9883 719.84 29.5117H721.891C722.023 30.4883 722.371 31.2266 722.934 31.7266C723.496 32.2188 724.238 32.4648 725.16 32.4648C726.168 32.4648 726.957 32.1211 727.527 31.4336C728.105 30.7461 728.395 29.7969 728.395 28.5859C728.395 27.4453 728.082 26.5312 727.457 25.8438C726.84 25.1484 726.016 24.8008 724.984 24.8008C724.039 24.8008 723.297 25.0078 722.758 25.4219L722.184 25.8906L720.449 25.4453Z" fill="black"/>
<path d="M44.4258 18.7891H38.9414V34H36.7031V18.7891H31.2305V16.9375H44.4258V18.7891ZM48.9727 34H46.8047V21.3203H48.9727V34ZM46.6289 17.957C46.6289 17.6055 46.7344 17.3086 46.9453 17.0664C47.1641 16.8242 47.4844 16.7031 47.9062 16.7031C48.3281 16.7031 48.6484 16.8242 48.8672 17.0664C49.0859 17.3086 49.1953 17.6055 49.1953 17.957C49.1953 18.3086 49.0859 18.6016 48.8672 18.8359C48.6484 19.0703 48.3281 19.1875 47.9062 19.1875C47.4844 19.1875 47.1641 19.0703 46.9453 18.8359C46.7344 18.6016 46.6289 18.3086 46.6289 17.957ZM54.4922 21.3203L54.5508 22.7266C55.4805 21.6328 56.7344 21.0859 58.3125 21.0859C60.0859 21.0859 61.293 21.7656 61.9336 23.125C62.3555 22.5156 62.9023 22.0234 63.5742 21.6484C64.2539 21.2734 65.0547 21.0859 65.9766 21.0859C68.7578 21.0859 70.1719 22.5586 70.2188 25.5039V34H68.0508V25.6328C68.0508 24.7266 67.8438 24.0508 67.4297 23.6055C67.0156 23.1523 66.3203 22.9258 65.3438 22.9258C64.5391 22.9258 63.8711 23.168 63.3398 23.6523C62.8086 24.1289 62.5 24.7734 62.4141 25.5859V34H60.2344V25.6914C60.2344 23.8477 59.332 22.9258 57.5273 22.9258C56.1055 22.9258 55.1328 23.5312 54.6094 24.7422V34H52.4414V21.3203H54.4922ZM78.7617 34.2344C77.043 34.2344 75.6445 33.6719 74.5664 32.5469C73.4883 31.4141 72.9492 29.9023 72.9492 28.0117V27.6133C72.9492 26.3555 73.1875 25.2344 73.6641 24.25C74.1484 23.2578 74.8203 22.4844 75.6797 21.9297C76.5469 21.3672 77.4844 21.0859 78.4922 21.0859C80.1406 21.0859 81.4219 21.6289 82.3359 22.7148C83.25 23.8008 83.707 25.3555 83.707 27.3789V28.2812H75.1172C75.1484 29.5312 75.5117 30.543 76.207 31.3164C76.9102 32.082 77.8008 32.4648 78.8789 32.4648C79.6445 32.4648 80.293 32.3086 80.8242 31.9961C81.3555 31.6836 81.8203 31.2695 82.2188 30.7539L83.543 31.7852C82.4805 33.418 80.8867 34.2344 78.7617 34.2344ZM78.4922 22.8672C77.6172 22.8672 76.8828 23.1875 76.2891 23.8281C75.6953 24.4609 75.3281 25.3516 75.1875 26.5H81.5391V26.3359C81.4766 25.2344 81.1797 24.3828 80.6484 23.7812C80.1172 23.1719 79.3984 22.8672 78.4922 22.8672ZM89.168 18.25V21.3203H91.5352V22.9961H89.168V30.8594C89.168 31.3672 89.2734 31.75 89.4844 32.0078C89.6953 32.2578 90.0547 32.3828 90.5625 32.3828C90.8125 32.3828 91.1562 32.3359 91.5938 32.2422V34C91.0234 34.1562 90.4688 34.2344 89.9297 34.2344C88.9609 34.2344 88.2305 33.9414 87.7383 33.3555C87.2461 32.7695 87 31.9375 87 30.8594V22.9961H84.6914V21.3203H87V18.25H89.168ZM99.3398 34.2344C97.6211 34.2344 96.2227 33.6719 95.1445 32.5469C94.0664 31.4141 93.5273 29.9023 93.5273 28.0117V27.6133C93.5273 26.3555 93.7656 25.2344 94.2422 24.25C94.7266 23.2578 95.3984 22.4844 96.2578 21.9297C97.125 21.3672 98.0625 21.0859 99.0703 21.0859C100.719 21.0859 102 21.6289 102.914 22.7148C103.828 23.8008 104.285 25.3555 104.285 27.3789V28.2812H95.6953C95.7266 29.5312 96.0898 30.543 96.7852 31.3164C97.4883 32.082 98.3789 32.4648 99.457 32.4648C100.223 32.4648 100.871 32.3086 101.402 31.9961C101.934 31.6836 102.398 31.2695 102.797 30.7539L104.121 31.7852C103.059 33.418 101.465 34.2344 99.3398 34.2344ZM99.0703 22.8672C98.1953 22.8672 97.4609 23.1875 96.8672 23.8281C96.2734 24.4609 95.9062 25.3516 95.7656 26.5H102.117V26.3359C102.055 25.2344 101.758 24.3828 101.227 23.7812C100.695 23.1719 99.9766 22.8672 99.0703 22.8672ZM112.934 23.2656C112.605 23.2109 112.25 23.1836 111.867 23.1836C110.445 23.1836 109.48 23.7891 108.973 25V34H106.805V21.3203H108.914L108.949 22.7852C109.66 21.6523 110.668 21.0859 111.973 21.0859C112.395 21.0859 112.715 21.1406 112.934 21.25V23.2656ZM116.977 21.3203L117.035 22.7266C117.965 21.6328 119.219 21.0859 120.797 21.0859C122.57 21.0859 123.777 21.7656 124.418 23.125C124.84 22.5156 125.387 22.0234 126.059 21.6484C126.738 21.2734 127.539 21.0859 128.461 21.0859C131.242 21.0859 132.656 22.5586 132.703 25.5039V34H130.535V25.6328C130.535 24.7266 130.328 24.0508 129.914 23.6055C129.5 23.1523 128.805 22.9258 127.828 22.9258C127.023 22.9258 126.355 23.168 125.824 23.6523C125.293 24.1289 124.984 24.7734 124.898 25.5859V34H122.719V25.6914C122.719 23.8477 121.816 22.9258 120.012 22.9258C118.59 22.9258 117.617 23.5312 117.094 24.7422V34H114.926V21.3203H116.977Z" fill="black"/>
</g>
<defs>
<filter id="filter0_d" x="634" y="237.5" width="403" height="260.5" filterUnits="userSpaceOnUse" color-interpolation-filters="sRGB">
<feFlood flood-opacity="0" result="BackgroundImageFix"/>
<feColorMatrix in="SourceAlpha" type="matrix" values="0 0 0 0 0 0 0 0 0 0 0 0 0 0 0 0 0 0 127 0"/>
<feOffset dx="4" dy="4"/>
<feGaussianBlur stdDeviation="5"/>
<feColorMatrix type="matrix" values="0 0 0 0 0 0 0 0 0 0 0 0 0 0 0 0 0 0 0.25 0"/>
<feBlend mode="normal" in2="BackgroundImageFix" result="effect1_dropShadow"/>
<feBlend mode="normal" in="SourceGraphic" in2="effect1_dropShadow" result="shape"/>
</filter>
<filter id="filter1_d" x="-10" y="-6" width="1300" height="71" filterUnits="userSpaceOnUse" color-interpolation-filters="sRGB">
<feFlood flood-opacity="0" result="BackgroundImageFix"/>
<feColorMatrix in="SourceAlpha" type="matrix" values="0 0 0 0 0 0 0 0 0 0 0 0 0 0 0 0 0 0 127 0"/>
<feOffset dy="4"/>
<feGaussianBlur stdDeviation="5"/>
<feColorMatrix type="matrix" values="0 0 0 0 0 0 0 0 0 0 0 0 0 0 0 0 0 0 0.06 0"/>
<feBlend mode="normal" in2="BackgroundImageFix" result="effect1_dropShadow"/>
<feBlend mode="normal" in="SourceGraphic" in2="effect1_dropShadow" result="shape"/>
</filter>
<clipPath id="clip0">
<rect width="1280" height="720" fill="white"/>
</clipPath>
</defs>
</svg>
