<svg width="1280" height="720" viewBox="0 0 1280 720" fill="none" xmlns="http://www.w3.org/2000/svg">
<g clip-path="url(#clip0)">
<rect width="1280" height="720" fill="white"/>
<path d="M1174.39 354.667H1110.33V365.333H1174.39V381.333L1195.67 360L1174.39 338.667V354.667Z" fill="#424242"/>
<g filter="url(#filter0_d)">
<g>
<rect x="640" y="484" width="240" height="383" rx="16" transform="rotate(-90 640 484)" fill="white"/>
</g>
<path d="M640 320H679C679 320 665.656 329.828 657.952 336.761C650.421 343.538 644.4 349.87 640 355V320Z" fill="#88CAB7"/>
<path fill-rule="evenodd" clip-rule="evenodd" d="M955.5 289C984.814 307.671 1023 347 1023 347L1023 259.5C1023 250.663 1015.84 243.5 1007 243.5L832.672 243.5C845.855 246.588 915.873 263.761 955.5 289Z" fill="#F28E37"/>
<path fill-rule="evenodd" clip-rule="evenodd" d="M640 336.393C640 336.393 703.931 310.284 761.838 310.284C798.937 310.284 852.93 329.021 883.198 339.525C894.384 343.407 902.33 346.164 904.983 346.435C914.818 347.44 921.374 336.393 921.374 336.393L969.482 243.5H656C647.168 243.5 640.008 250.656 640 259.486C640 259.491 640 259.495 640 259.5L640 336.393Z" fill="#932D5B"/>
<path d="M682.828 292V272.297H687.006V288.55H694.998V292H682.828ZM709.92 292H698.572V272.297H709.92V275.72H702.75V280.046H709.421V283.469H702.75V288.55H709.92V292ZM725.529 292H714.181V272.297H725.529V275.72H718.359V280.046H725.03V283.469H718.359V288.55H725.529V292ZM733.968 281.044H735.316C736.637 281.044 737.611 280.823 738.24 280.383C738.869 279.943 739.184 279.251 739.184 278.308C739.184 277.373 738.86 276.709 738.213 276.313C737.575 275.918 736.583 275.72 735.235 275.72H733.968V281.044ZM733.968 284.44V292H729.79V272.297H735.532C738.209 272.297 740.19 272.787 741.475 273.766C742.759 274.737 743.402 276.214 743.402 278.2C743.402 279.359 743.083 280.392 742.445 281.3C741.807 282.198 740.904 282.903 739.736 283.415C742.701 287.845 744.633 290.706 745.531 292H740.895L736.192 284.44H733.968ZM748.149 292V272.297H752.327V288.55H760.318V292H748.149ZM763.893 292V272.297H768.07V292H763.893ZM790.647 292H785.337L776.766 277.095H776.645C776.815 279.727 776.901 281.605 776.901 282.728V292H773.168V272.297H778.437L786.995 287.054H787.089C786.954 284.494 786.887 282.683 786.887 281.623V272.297H790.647V292ZM803.237 280.936H811.054V291.151C809.787 291.564 808.592 291.852 807.469 292.013C806.355 292.184 805.214 292.27 804.046 292.27C801.072 292.27 798.799 291.398 797.227 289.655C795.663 287.903 794.882 285.392 794.882 282.122C794.882 278.941 795.789 276.462 797.604 274.683C799.428 272.904 801.952 272.014 805.178 272.014C807.199 272.014 809.149 272.419 811.027 273.227L809.639 276.569C808.201 275.851 806.705 275.491 805.151 275.491C803.345 275.491 801.899 276.098 800.811 277.311C799.724 278.523 799.181 280.154 799.181 282.203C799.181 284.341 799.617 285.976 800.488 287.108C801.368 288.231 802.644 288.793 804.315 288.793C805.187 288.793 806.072 288.703 806.97 288.523V284.413H803.237V280.936ZM827.242 292H815.895V272.297H827.242V275.72H820.073V280.046H826.744V283.469H820.073V288.55H827.242V292ZM848.983 292H843.673L835.102 277.095H834.981C835.152 279.727 835.237 281.605 835.237 282.728V292H831.504V272.297H836.773L845.331 287.054H845.425C845.291 284.494 845.223 282.683 845.223 281.623V272.297H848.983V292ZM866.263 277.957C866.263 279.862 865.616 281.322 864.323 282.337C863.029 283.353 861.196 283.86 858.824 283.86H855.779V292H854.404V272.297H859.229C863.918 272.297 866.263 274.184 866.263 277.957ZM855.779 282.674H858.487C860.706 282.674 862.31 282.31 863.298 281.583C864.287 280.846 864.781 279.655 864.781 278.011C864.781 276.493 864.314 275.37 863.379 274.642C862.445 273.905 860.998 273.537 859.04 273.537H855.779V282.674ZM880.174 285.046H872.169L869.42 292H867.897L875.821 272.216H876.697L884.46 292H882.91L880.174 285.046ZM872.668 283.806H879.716L877.034 276.704C876.81 276.147 876.54 275.374 876.226 274.386C875.983 275.249 875.718 276.03 875.431 276.731L872.668 283.806ZM898.277 286.919C898.277 288.563 897.67 289.866 896.457 290.828C895.253 291.789 893.65 292.27 891.646 292.27C889.238 292.27 887.392 292.004 886.107 291.474V290.1C887.527 290.702 889.337 291.003 891.538 291.003C893.156 291.003 894.436 290.634 895.379 289.898C896.332 289.152 896.808 288.177 896.808 286.973C896.808 286.228 896.65 285.612 896.336 285.127C896.022 284.633 895.509 284.184 894.8 283.779C894.09 283.375 893.048 282.939 891.673 282.472C889.661 281.78 888.268 281.035 887.495 280.235C886.732 279.426 886.35 278.353 886.35 277.014C886.35 275.541 886.925 274.341 888.075 273.416C889.234 272.481 890.721 272.014 892.536 272.014C894.386 272.014 896.125 272.365 897.751 273.065L897.252 274.251C895.617 273.569 894.054 273.227 892.563 273.227C891.107 273.227 889.948 273.564 889.086 274.238C888.223 274.912 887.792 275.828 887.792 276.987C887.792 277.715 887.922 278.312 888.183 278.779C888.452 279.247 888.888 279.669 889.49 280.046C890.092 280.415 891.125 280.859 892.59 281.38C894.126 281.911 895.28 282.427 896.053 282.93C896.826 283.424 897.387 283.99 897.738 284.628C898.097 285.257 898.277 286.021 898.277 286.919Z" fill="white"/>
<path d="M718 388.583C722.833 388.583 726.75 392.5 726.75 397.333C726.75 402.167 722.833 406.083 718 406.083C713.167 406.083 709.25 402.167 709.25 397.333C709.25 392.5 713.167 388.583 718 388.583ZM718 426.083C730.375 426.083 743.417 432.167 743.417 434.833V439.417H692.583V434.833C692.583 432.167 705.625 426.083 718 426.083ZM718 380.667C708.792 380.667 701.333 388.125 701.333 397.333C701.333 406.542 708.792 414 718 414C727.208 414 734.667 406.542 734.667 397.333C734.667 388.125 727.208 380.667 718 380.667ZM718 418.167C706.875 418.167 684.667 423.75 684.667 434.833V447.333H751.333V434.833C751.333 423.75 729.125 418.167 718 418.167Z" fill="#C4C4C4"/>
</g>
<g filter="url(#filter2_d)">
<g>
<rect width="1280" height="50" fill="#242424"/>
</g>
<path d="M1233 12.7451C1227.39 12.7451 1221.93 14.5882 1217.51 17.9738C1222.88 24.5882 1227.52 30.2222 1233 36.9281C1238.44 30.2876 1243.99 23.5163 1248.53 17.9738C1244.09 14.5882 1238.63 12.7451 1233 12.7451ZM1233 15.3595C1237.09 15.3595 1241.12 16.4836 1244.61 18.5621L1242.03 21.7386C1240.01 20.5882 1236.84 19.281 1233 19.281C1229 19.281 1225.91 20.5882 1223.95 21.6863L1221.36 18.549C1224.88 16.4706 1228.91 15.3595 1233 15.3595Z" fill="#C4C4C4"/>
<path d="M558.414 15.9258V17.7656H558.016C556.328 17.7969 554.984 18.2969 553.984 19.2656C552.984 20.2344 552.406 21.5977 552.25 23.3555C553.148 22.3242 554.375 21.8086 555.93 21.8086C557.414 21.8086 558.598 22.332 559.48 23.3789C560.371 24.4258 560.816 25.7773 560.816 27.4336C560.816 29.1914 560.336 30.5977 559.375 31.6523C558.422 32.707 557.141 33.2344 555.531 33.2344C553.898 33.2344 552.574 32.6094 551.559 31.3594C550.543 30.1016 550.035 28.4844 550.035 26.5078V25.6758C550.035 22.5352 550.703 20.1367 552.039 18.4805C553.383 16.8164 555.379 15.9648 558.027 15.9258H558.414ZM555.566 23.6133C554.824 23.6133 554.141 23.8359 553.516 24.2812C552.891 24.7266 552.457 25.2852 552.215 25.957V26.7539C552.215 28.1602 552.531 29.293 553.164 30.1523C553.797 31.0117 554.586 31.4414 555.531 31.4414C556.508 31.4414 557.273 31.082 557.828 30.3633C558.391 29.6445 558.672 28.7031 558.672 27.5391C558.672 26.3672 558.387 25.4219 557.816 24.7031C557.254 23.9766 556.504 23.6133 555.566 23.6133ZM571.797 20.3203V34.4648C571.797 36.9023 570.691 38.1211 568.48 38.1211C568.004 38.1211 567.562 38.0508 567.156 37.9102V36.1758C567.406 36.2383 567.734 36.2695 568.141 36.2695C568.625 36.2695 568.992 36.1367 569.242 35.8711C569.5 35.6133 569.629 35.1602 569.629 34.5117V20.3203H571.797ZM569.406 16.957C569.406 16.6133 569.512 16.3203 569.723 16.0781C569.941 15.8281 570.258 15.7031 570.672 15.7031C571.094 15.7031 571.414 15.8242 571.633 16.0664C571.852 16.3086 571.961 16.6055 571.961 16.957C571.961 17.3086 571.852 17.6016 571.633 17.8359C571.414 18.0703 571.094 18.1875 570.672 18.1875C570.25 18.1875 569.934 18.0703 569.723 17.8359C569.512 17.6016 569.406 17.3086 569.406 16.957ZM583.129 31.7461C582.285 32.7383 581.047 33.2344 579.414 33.2344C578.062 33.2344 577.031 32.8438 576.32 32.0625C575.617 31.2734 575.262 30.1094 575.254 28.5703V20.3203H577.422V28.5117C577.422 30.4336 578.203 31.3945 579.766 31.3945C581.422 31.3945 582.523 30.7773 583.07 29.543V20.3203H585.238V33H583.176L583.129 31.7461ZM590.594 20.3203L590.664 21.9141C591.633 20.6953 592.898 20.0859 594.461 20.0859C597.141 20.0859 598.492 21.5977 598.516 24.6211V33H596.348V24.6094C596.34 23.6953 596.129 23.0195 595.715 22.582C595.309 22.1445 594.672 21.9258 593.805 21.9258C593.102 21.9258 592.484 22.1133 591.953 22.4883C591.422 22.8633 591.008 23.3555 590.711 23.9648V33H588.543V20.3203H590.594ZM604.141 33H601.973V20.3203H604.141V33ZM601.797 16.957C601.797 16.6055 601.902 16.3086 602.113 16.0664C602.332 15.8242 602.652 15.7031 603.074 15.7031C603.496 15.7031 603.816 15.8242 604.035 16.0664C604.254 16.3086 604.363 16.6055 604.363 16.957C604.363 17.3086 604.254 17.6016 604.035 17.8359C603.816 18.0703 603.496 18.1875 603.074 18.1875C602.652 18.1875 602.332 18.0703 602.113 17.8359C601.902 17.6016 601.797 17.3086 601.797 16.957ZM624.531 33H613.352V31.4414L619.258 24.8789C620.133 23.8867 620.734 23.082 621.062 22.4648C621.398 21.8398 621.566 21.1953 621.566 20.5312C621.566 19.6406 621.297 18.9102 620.758 18.3398C620.219 17.7695 619.5 17.4844 618.602 17.4844C617.523 17.4844 616.684 17.793 616.082 18.4102C615.488 19.0195 615.191 19.8711 615.191 20.9648H613.023C613.023 19.3945 613.527 18.125 614.535 17.1562C615.551 16.1875 616.906 15.7031 618.602 15.7031C620.188 15.7031 621.441 16.1211 622.363 16.957C623.285 17.7852 623.746 18.8906 623.746 20.2734C623.746 21.9531 622.676 23.9531 620.535 26.2734L615.965 31.2305H624.531V33ZM637.527 25.7227C637.527 28.2617 637.094 30.1484 636.227 31.3828C635.359 32.6172 634.004 33.2344 632.16 33.2344C630.34 33.2344 628.992 32.6328 628.117 31.4297C627.242 30.2188 626.789 28.4141 626.758 26.0156V23.1211C626.758 20.6133 627.191 18.75 628.059 17.5312C628.926 16.3125 630.285 15.7031 632.137 15.7031C633.973 15.7031 635.324 16.293 636.191 17.4727C637.059 18.6445 637.504 20.457 637.527 22.9102V25.7227ZM635.359 22.7578C635.359 20.9219 635.102 19.5859 634.586 18.75C634.07 17.9062 633.254 17.4844 632.137 17.4844C631.027 17.4844 630.219 17.9023 629.711 18.7383C629.203 19.5742 628.941 20.8594 628.926 22.5938V26.0625C628.926 27.9062 629.191 29.2695 629.723 30.1523C630.262 31.0273 631.074 31.4648 632.16 31.4648C633.23 31.4648 634.023 31.0508 634.539 30.2227C635.062 29.3945 635.336 28.0898 635.359 26.3086V22.7578ZM651.484 33H640.305V31.4414L646.211 24.8789C647.086 23.8867 647.688 23.082 648.016 22.4648C648.352 21.8398 648.52 21.1953 648.52 20.5312C648.52 19.6406 648.25 18.9102 647.711 18.3398C647.172 17.7695 646.453 17.4844 645.555 17.4844C644.477 17.4844 643.637 17.793 643.035 18.4102C642.441 19.0195 642.145 19.8711 642.145 20.9648H639.977C639.977 19.3945 640.48 18.125 641.488 17.1562C642.504 16.1875 643.859 15.7031 645.555 15.7031C647.141 15.7031 648.395 16.1211 649.316 16.957C650.238 17.7852 650.699 18.8906 650.699 20.2734C650.699 21.9531 649.629 23.9531 647.488 26.2734L642.918 31.2305H651.484V33ZM664.48 25.7227C664.48 28.2617 664.047 30.1484 663.18 31.3828C662.312 32.6172 660.957 33.2344 659.113 33.2344C657.293 33.2344 655.945 32.6328 655.07 31.4297C654.195 30.2188 653.742 28.4141 653.711 26.0156V23.1211C653.711 20.6133 654.145 18.75 655.012 17.5312C655.879 16.3125 657.238 15.7031 659.09 15.7031C660.926 15.7031 662.277 16.293 663.145 17.4727C664.012 18.6445 664.457 20.457 664.48 22.9102V25.7227ZM662.312 22.7578C662.312 20.9219 662.055 19.5859 661.539 18.75C661.023 17.9062 660.207 17.4844 659.09 17.4844C657.98 17.4844 657.172 17.9023 656.664 18.7383C656.156 19.5742 655.895 20.8594 655.879 22.5938V26.0625C655.879 27.9062 656.145 29.2695 656.676 30.1523C657.215 31.0273 658.027 31.4648 659.113 31.4648C660.184 31.4648 660.977 31.0508 661.492 30.2227C662.016 29.3945 662.289 28.0898 662.312 26.3086V22.7578ZM680.336 33H678.156V18.5508L673.785 20.1562V18.1875L679.996 15.8555H680.336V33ZM695.84 27.2695H698.207V29.0391H695.84V33H693.66V29.0391H685.891V27.7617L693.531 15.9375H695.84V27.2695ZM688.352 27.2695H693.66V18.9023L693.402 19.3711L688.352 27.2695ZM700.316 31.8633C700.316 31.4883 700.426 31.1758 700.645 30.9258C700.871 30.6758 701.207 30.5508 701.652 30.5508C702.098 30.5508 702.434 30.6758 702.66 30.9258C702.895 31.1758 703.012 31.4883 703.012 31.8633C703.012 32.2227 702.895 32.5234 702.66 32.7656C702.434 33.0078 702.098 33.1289 701.652 33.1289C701.207 33.1289 700.871 33.0078 700.645 32.7656C700.426 32.5234 700.316 32.2227 700.316 31.8633ZM700.328 21.5156C700.328 21.1406 700.438 20.8281 700.656 20.5781C700.883 20.3281 701.219 20.2031 701.664 20.2031C702.109 20.2031 702.445 20.3281 702.672 20.5781C702.906 20.8281 703.023 21.1406 703.023 21.5156C703.023 21.875 702.906 22.1758 702.672 22.418C702.445 22.6602 702.109 22.7812 701.664 22.7812C701.219 22.7812 700.883 22.6602 700.656 22.418C700.438 22.1758 700.328 21.875 700.328 21.5156ZM709.129 23.4141H710.758C711.781 23.3984 712.586 23.1289 713.172 22.6055C713.758 22.082 714.051 21.375 714.051 20.4844C714.051 18.4844 713.055 17.4844 711.062 17.4844C710.125 17.4844 709.375 17.7539 708.812 18.293C708.258 18.8242 707.98 19.5312 707.98 20.4141H705.812C705.812 19.0625 706.305 17.9414 707.289 17.0508C708.281 16.1523 709.539 15.7031 711.062 15.7031C712.672 15.7031 713.934 16.1289 714.848 16.9805C715.762 17.832 716.219 19.0156 716.219 20.5312C716.219 21.2734 715.977 21.9922 715.492 22.6875C715.016 23.3828 714.363 23.9023 713.535 24.2461C714.473 24.543 715.195 25.0352 715.703 25.7227C716.219 26.4102 716.477 27.25 716.477 28.2422C716.477 29.7734 715.977 30.9883 714.977 31.8867C713.977 32.7852 712.676 33.2344 711.074 33.2344C709.473 33.2344 708.168 32.8008 707.16 31.9336C706.16 31.0664 705.66 29.9219 705.66 28.5H707.84C707.84 29.3984 708.133 30.1172 708.719 30.6562C709.305 31.1953 710.09 31.4648 711.074 31.4648C712.121 31.4648 712.922 31.1914 713.477 30.6445C714.031 30.0977 714.309 29.3125 714.309 28.2891C714.309 27.2969 714.004 26.5352 713.395 26.0039C712.785 25.4727 711.906 25.1992 710.758 25.1836H709.129V23.4141ZM720.449 24.4453L721.316 15.9375H730.059V17.9414H723.156L722.641 22.5938C723.477 22.1016 724.426 21.8555 725.488 21.8555C727.043 21.8555 728.277 22.3711 729.191 23.4023C730.105 24.4258 730.562 25.8125 730.562 27.5625C730.562 29.3203 730.086 30.707 729.133 31.7227C728.188 32.7305 726.863 33.2344 725.16 33.2344C723.652 33.2344 722.422 32.8164 721.469 31.9805C720.516 31.1445 719.973 29.9883 719.84 28.5117H721.891C722.023 29.4883 722.371 30.2266 722.934 30.7266C723.496 31.2188 724.238 31.4648 725.16 31.4648C726.168 31.4648 726.957 31.1211 727.527 30.4336C728.105 29.7461 728.395 28.7969 728.395 27.5859C728.395 26.4453 728.082 25.5312 727.457 24.8438C726.84 24.1484 726.016 23.8008 724.984 23.8008C724.039 23.8008 723.297 24.0078 722.758 24.4219L722.184 24.8906L720.449 24.4453Z" fill="#C4C4C4"/>
<path d="M44.4258 17.7891H38.9414V33H36.7031V17.7891H31.2305V15.9375H44.4258V17.7891ZM48.9727 33H46.8047V20.3203H48.9727V33ZM46.6289 16.957C46.6289 16.6055 46.7344 16.3086 46.9453 16.0664C47.1641 15.8242 47.4844 15.7031 47.9062 15.7031C48.3281 15.7031 48.6484 15.8242 48.8672 16.0664C49.0859 16.3086 49.1953 16.6055 49.1953 16.957C49.1953 17.3086 49.0859 17.6016 48.8672 17.8359C48.6484 18.0703 48.3281 18.1875 47.9062 18.1875C47.4844 18.1875 47.1641 18.0703 46.9453 17.8359C46.7344 17.6016 46.6289 17.3086 46.6289 16.957ZM54.4922 20.3203L54.5508 21.7266C55.4805 20.6328 56.7344 20.0859 58.3125 20.0859C60.0859 20.0859 61.293 20.7656 61.9336 22.125C62.3555 21.5156 62.9023 21.0234 63.5742 20.6484C64.2539 20.2734 65.0547 20.0859 65.9766 20.0859C68.7578 20.0859 70.1719 21.5586 70.2188 24.5039V33H68.0508V24.6328C68.0508 23.7266 67.8438 23.0508 67.4297 22.6055C67.0156 22.1523 66.3203 21.9258 65.3438 21.9258C64.5391 21.9258 63.8711 22.168 63.3398 22.6523C62.8086 23.1289 62.5 23.7734 62.4141 24.5859V33H60.2344V24.6914C60.2344 22.8477 59.332 21.9258 57.5273 21.9258C56.1055 21.9258 55.1328 22.5312 54.6094 23.7422V33H52.4414V20.3203H54.4922ZM78.7617 33.2344C77.043 33.2344 75.6445 32.6719 74.5664 31.5469C73.4883 30.4141 72.9492 28.9023 72.9492 27.0117V26.6133C72.9492 25.3555 73.1875 24.2344 73.6641 23.25C74.1484 22.2578 74.8203 21.4844 75.6797 20.9297C76.5469 20.3672 77.4844 20.0859 78.4922 20.0859C80.1406 20.0859 81.4219 20.6289 82.3359 21.7148C83.25 22.8008 83.707 24.3555 83.707 26.3789V27.2812H75.1172C75.1484 28.5312 75.5117 29.543 76.207 30.3164C76.9102 31.082 77.8008 31.4648 78.8789 31.4648C79.6445 31.4648 80.293 31.3086 80.8242 30.9961C81.3555 30.6836 81.8203 30.2695 82.2188 29.7539L83.543 30.7852C82.4805 32.418 80.8867 33.2344 78.7617 33.2344ZM78.4922 21.8672C77.6172 21.8672 76.8828 22.1875 76.2891 22.8281C75.6953 23.4609 75.3281 24.3516 75.1875 25.5H81.5391V25.3359C81.4766 24.2344 81.1797 23.3828 80.6484 22.7812C80.1172 22.1719 79.3984 21.8672 78.4922 21.8672ZM89.168 17.25V20.3203H91.5352V21.9961H89.168V29.8594C89.168 30.3672 89.2734 30.75 89.4844 31.0078C89.6953 31.2578 90.0547 31.3828 90.5625 31.3828C90.8125 31.3828 91.1562 31.3359 91.5938 31.2422V33C91.0234 33.1562 90.4688 33.2344 89.9297 33.2344C88.9609 33.2344 88.2305 32.9414 87.7383 32.3555C87.2461 31.7695 87 30.9375 87 29.8594V21.9961H84.6914V20.3203H87V17.25H89.168ZM99.3398 33.2344C97.6211 33.2344 96.2227 32.6719 95.1445 31.5469C94.0664 30.4141 93.5273 28.9023 93.5273 27.0117V26.6133C93.5273 25.3555 93.7656 24.2344 94.2422 23.25C94.7266 22.2578 95.3984 21.4844 96.2578 20.9297C97.125 20.3672 98.0625 20.0859 99.0703 20.0859C100.719 20.0859 102 20.6289 102.914 21.7148C103.828 22.8008 104.285 24.3555 104.285 26.3789V27.2812H95.6953C95.7266 28.5312 96.0898 29.543 96.7852 30.3164C97.4883 31.082 98.3789 31.4648 99.457 31.4648C100.223 31.4648 100.871 31.3086 101.402 30.9961C101.934 30.6836 102.398 30.2695 102.797 29.7539L104.121 30.7852C103.059 32.418 101.465 33.2344 99.3398 33.2344ZM99.0703 21.8672C98.1953 21.8672 97.4609 22.1875 96.8672 22.8281C96.2734 23.4609 95.9062 24.3516 95.7656 25.5H102.117V25.3359C102.055 24.2344 101.758 23.3828 101.227 22.7812C100.695 22.1719 99.9766 21.8672 99.0703 21.8672ZM112.934 22.2656C112.605 22.2109 112.25 22.1836 111.867 22.1836C110.445 22.1836 109.48 22.7891 108.973 24V33H106.805V20.3203H108.914L108.949 21.7852C109.66 20.6523 110.668 20.0859 111.973 20.0859C112.395 20.0859 112.715 20.1406 112.934 20.25V22.2656ZM116.977 20.3203L117.035 21.7266C117.965 20.6328 119.219 20.0859 120.797 20.0859C122.57 20.0859 123.777 20.7656 124.418 22.125C124.84 21.5156 125.387 21.0234 126.059 20.6484C126.738 20.2734 127.539 20.0859 128.461 20.0859C131.242 20.0859 132.656 21.5586 132.703 24.5039V33H130.535V24.6328C130.535 23.7266 130.328 23.0508 129.914 22.6055C129.5 22.1523 128.805 21.9258 127.828 21.9258C127.023 21.9258 126.355 22.168 125.824 22.6523C125.293 23.1289 124.984 23.7734 124.898 24.5859V33H122.719V24.6914C122.719 22.8477 121.816 21.9258 120.012 21.9258C118.59 21.9258 117.617 22.5312 117.094 23.7422V33H114.926V20.3203H116.977Z" fill="#E5E5E5"/>
</g>
</g>
<defs>
<filter id="filter0_d" x="634" y="237.5" width="403" height="260.5" filterUnits="userSpaceOnUse" color-interpolation-filters="sRGB">
<feFlood flood-opacity="0" result="BackgroundImageFix"/>
<feColorMatrix in="SourceAlpha" type="matrix" values="0 0 0 0 0 0 0 0 0 0 0 0 0 0 0 0 0 0 127 0"/>
<feOffset dx="4" dy="4"/>
<feGaussianBlur stdDeviation="5"/>
<feColorMatrix type="matrix" values="0 0 0 0 0 0 0 0 0 0 0 0 0 0 0 0 0 0 0.25 0"/>
<feBlend mode="normal" in2="BackgroundImageFix" result="effect1_dropShadow"/>
<feBlend mode="normal" in="SourceGraphic" in2="effect1_dropShadow" result="shape"/>
</filter>
<filter id="filter2_d" x="-6" y="-4" width="1292" height="62" filterUnits="userSpaceOnUse" color-interpolation-filters="sRGB">
<feFlood flood-opacity="0" result="BackgroundImageFix"/>
<feColorMatrix in="SourceAlpha" type="matrix" values="0 0 0 0 0 0 0 0 0 0 0 0 0 0 0 0 0 0 127 0"/>
<feOffset dy="2"/>
<feGaussianBlur stdDeviation="3"/>
<feColorMatrix type="matrix" values="0 0 0 0 0 0 0 0 0 0 0 0 0 0 0 0 0 0 0.25 0"/>
<feBlend mode="normal" in2="BackgroundImageFix" result="effect1_dropShadow"/>
<feBlend mode="normal" in="SourceGraphic" in2="effect1_dropShadow" result="shape"/>
</filter>
<clipPath id="clip0">
<rect width="1280" height="720" fill="white"/>
</clipPath>
</defs>
</svg>
