<?xml version="1.0" encoding="UTF-8" standalone="no"?>
<!DOCTYPE svg PUBLIC "-//W3C//DTD SVG 1.1//EN" "http://www.w3.org/Graphics/SVG/1.1/DTD/svg11.dtd">
<svg version="1.1" xmlns="http://www.w3.org/2000/svg" xmlns:xlink="http://www.w3.org/1999/xlink" preserveAspectRatio="xMidYMid meet" viewBox="0 0 1200 1200" width="1200" height="1200"><defs><path d="M22.91 237.13C30.62 238.57 28.69 230.39 36.87 225.09C45.06 219.8 54.68 221.72 56.13 217.87C57.57 214.02 50.35 194.77 50.35 194.77" id="a2WdwAHzZY"></path><path d="M762.62 1200C762.62 1200 511.48 708.17 427.34 524.51C425.19 501.12 417.74 484.98 404.99 476.07C385.88 462.71 376.7 437.46 376.2 435.1C372.64 417.98 386.91 385.43 381.34 323.26C379.11 298.41 369.34 247.42 350.49 233.71C331.64 220 315.37 217.86 308.51 209.29C301.66 200.72 301.05 194.47 288.37 186.58C275.69 178.7 271.24 184.02 255.81 181.88C242.13 179.97 237.37 159.16 220.23 154.01C203.1 148.87 175.25 157.87 175.25 157.87C161.08 134.59 145.22 109.77 133.85 86.71C102.92 59.9 86.32 50.97 68.58 34.06C37.28 17.77 16.61 4.22 8.13 8.76C-3.13 14.78 3.28 36.29 16.71 48.6C32.14 62.74 34.82 68.56 51.84 91.45C64.27 108.15 83.12 118.02 83.12 118.02C83.12 118.02 94.27 157.42 102.4 185.29C107.88 204.05 104.12 195.57 109.26 231.57C111.83 249.56 113.33 255.56 111.62 263.06C109.9 270.56 104.97 279.56 104.97 279.56C104.97 279.56 98.84 269.08 93.4 256.85C90.84 239.7 83.54 221.7 75.4 212.71C58.42 193.95 47.12 192.15 31.7 199.01C12.77 207.42 12.85 211.88 19.71 240.16C26.57 268.44 19.67 267.14 32.14 295.86C45.71 327.13 47.92 323.59 52.7 339.55C57.49 355.5 63.68 380.52 77.98 394.39C92.44 408.41 116.62 423.02 127.69 429.52C150.38 442.85 180.24 451.82 205.69 459.96C230.05 506.6 531.36 1200 531.36 1200" id="b17FOd5qd9"></path><path d="M762.62 1200C762.62 1200 511.48 708.17 427.34 524.51C425.19 501.12 417.74 484.98 404.99 476.07C385.88 462.71 376.7 437.46 376.2 435.1C372.64 417.98 386.91 385.43 381.34 323.26C379.11 298.41 369.34 247.42 350.49 233.71C331.64 220 315.37 217.86 308.51 209.29C301.66 200.72 301.05 194.47 288.37 186.58C275.69 178.7 271.24 184.02 255.81 181.88C242.13 179.97 237.37 159.16 220.23 154.01C203.1 148.87 175.25 157.87 175.25 157.87C161.08 134.59 145.22 109.77 133.85 86.71C102.92 59.9 86.32 50.97 68.58 34.06C37.28 17.77 16.61 4.22 8.13 8.76C-3.13 14.78 3.28 36.29 16.71 48.6C32.14 62.74 34.82 68.56 51.84 91.45C64.27 108.15 83.12 118.02 83.12 118.02C83.12 118.02 94.27 157.42 102.4 185.29C107.88 204.05 104.12 195.57 109.26 231.57C111.83 249.56 113.33 255.56 111.62 263.06C109.9 270.56 104.97 279.56 104.97 279.56C104.97 279.56 98.84 269.08 93.4 256.85C90.84 239.7 83.54 221.7 75.4 212.71C58.42 193.95 47.12 192.15 31.7 199.01C12.77 207.42 12.85 211.88 19.71 240.16C26.57 268.44 19.67 267.14 32.14 295.86C45.71 327.13 47.92 323.59 52.7 339.55C57.49 355.5 63.68 380.52 77.98 394.39C92.44 408.41 116.62 423.02 127.69 429.52C150.38 442.85 180.24 451.82 205.69 459.96C230.05 506.6 530.88 1200 530.88 1200" id="dSHY40XBM"></path><path d="M22.91 237.13C30.62 238.57 28.69 230.39 36.87 225.09C45.06 219.8 54.68 221.72 56.13 217.87C57.57 214.02 50.35 194.77 50.35 194.77" id="geKRMp5I"></path><path d="M66.23 253.49C44.09 261.19 40.24 269.86 36.87 278.52" id="f2ww8xDnhV"></path><path d="M66.23 253.49C44.09 261.19 40.24 269.86 36.87 278.52" id="a2tOfopEsx"></path><path d="M68.59 257.92C46.45 265.62 42.6 274.28 39.23 282.95" id="bLd2zHaGD"></path><path d="M68.59 257.92C46.45 265.62 42.6 274.28 39.23 282.95" id="btCxb16Se"></path><path d="M60.94 29.19C43.61 32.08 44.09 35.45 41.21 38.34" id="ajypA57Cu"></path><path d="M60.94 29.19C43.61 32.08 44.09 35.45 41.21 38.34" id="c4esWI6Tz6"></path><path d="M66 31.85C48.67 34.73 49.15 38.1 46.26 40.99" id="a15ndwjGku"></path><path d="M66 31.85C48.67 34.73 49.15 38.1 46.26 40.99" id="a539oA3ef"></path><path d="M127.02 78.57C113.16 79.21 104.48 85.77 100.03 87.88" id="g30ETVkZrA"></path><path d="M127.02 78.57C113.16 79.21 104.48 85.77 100.03 87.88" id="a2908UuGQl"></path><path d="M130.98 81.9C115.98 83.78 105.78 87.52 105.02 90.53" id="a8ZMcrMWw"></path><path d="M130.98 81.9C115.98 83.78 105.78 87.52 105.02 90.53" id="a4PSy2THBE"></path><path d="M33.73 14.31C26.56 14.5 23.34 20.08 18.25 19.59C14.27 19.22 9.01 18.08 5.04 14.31" id="aFoluw8ss"></path><path d="M33.73 14.31C26.56 14.5 23.34 20.08 18.25 19.59C14.27 19.22 9.01 18.08 5.04 14.31" id="eTqf3yzr"></path></defs><g><g><g><use xlink:href="#a2WdwAHzZY" opacity="1" fill="#000000" fill-opacity="0"></use><g><use xlink:href="#a2WdwAHzZY" opacity="1" fill-opacity="0" stroke="#000000" stroke-width="1" stroke-opacity="0"></use></g></g><g><use xlink:href="#b17FOd5qd9" opacity="1" fill="#db9977" fill-opacity="1"></use><g><use xlink:href="#b17FOd5qd9" opacity="1" fill-opacity="0" stroke="#000000" stroke-width="1" stroke-opacity="0"></use></g></g><g><use xlink:href="#dSHY40XBM" opacity="1" fill="#000000" fill-opacity="0"></use><g><use xlink:href="#dSHY40XBM" opacity="1" fill-opacity="0" stroke="#000000" stroke-width="4" stroke-opacity="1"></use></g></g><g><use xlink:href="#geKRMp5I" opacity="1" fill="#000000" fill-opacity="0"></use><g><use xlink:href="#geKRMp5I" opacity="1" fill-opacity="0" stroke="#000000" stroke-width="4" stroke-opacity="1"></use></g></g><g><use xlink:href="#f2ww8xDnhV" opacity="1" fill="#000000" fill-opacity="0"></use><g><use xlink:href="#f2ww8xDnhV" opacity="1" fill-opacity="0" stroke="#000000" stroke-width="1" stroke-opacity="0"></use></g></g><g><use xlink:href="#a2tOfopEsx" opacity="1" fill="#000000" fill-opacity="0"></use><g><use xlink:href="#a2tOfopEsx" opacity="1" fill-opacity="0" stroke="#000000" stroke-width="4" stroke-opacity="1"></use></g></g><g><use xlink:href="#bLd2zHaGD" opacity="1" fill="#000000" fill-opacity="0"></use><g><use xlink:href="#bLd2zHaGD" opacity="1" fill-opacity="0" stroke="#000000" stroke-width="1" stroke-opacity="0"></use></g></g><g><use xlink:href="#btCxb16Se" opacity="1" fill="#000000" fill-opacity="0"></use><g><use xlink:href="#btCxb16Se" opacity="1" fill-opacity="0" stroke="#000000" stroke-width="4" stroke-opacity="1"></use></g></g><g><use xlink:href="#ajypA57Cu" opacity="1" fill="#000000" fill-opacity="0"></use><g><use xlink:href="#ajypA57Cu" opacity="1" fill-opacity="0" stroke="#000000" stroke-width="1" stroke-opacity="0"></use></g></g><g><use xlink:href="#c4esWI6Tz6" opacity="1" fill="#000000" fill-opacity="0"></use><g><use xlink:href="#c4esWI6Tz6" opacity="1" fill-opacity="0" stroke="#000000" stroke-width="4" stroke-opacity="1"></use></g></g><g><use xlink:href="#a15ndwjGku" opacity="1" fill="#000000" fill-opacity="0"></use><g><use xlink:href="#a15ndwjGku" opacity="1" fill-opacity="0" stroke="#000000" stroke-width="1" stroke-opacity="0"></use></g></g><g><use xlink:href="#a539oA3ef" opacity="1" fill="#000000" fill-opacity="0"></use><g><use xlink:href="#a539oA3ef" opacity="1" fill-opacity="0" stroke="#000000" stroke-width="4" stroke-opacity="1"></use></g></g><g><use xlink:href="#g30ETVkZrA" opacity="1" fill="#000000" fill-opacity="0"></use><g><use xlink:href="#g30ETVkZrA" opacity="1" fill-opacity="0" stroke="#000000" stroke-width="1" stroke-opacity="0"></use></g></g><g><use xlink:href="#a2908UuGQl" opacity="1" fill="#000000" fill-opacity="0"></use><g><use xlink:href="#a2908UuGQl" opacity="1" fill-opacity="0" stroke="#000000" stroke-width="4" stroke-opacity="1"></use></g></g><g><use xlink:href="#a8ZMcrMWw" opacity="1" fill="#000000" fill-opacity="0"></use><g><use xlink:href="#a8ZMcrMWw" opacity="1" fill-opacity="0" stroke="#000000" stroke-width="1" stroke-opacity="0"></use></g></g><g><use xlink:href="#a4PSy2THBE" opacity="1" fill="#000000" fill-opacity="0"></use><g><use xlink:href="#a4PSy2THBE" opacity="1" fill-opacity="0" stroke="#000000" stroke-width="4" stroke-opacity="1"></use></g></g><g><use xlink:href="#aFoluw8ss" opacity="1" fill="#000000" fill-opacity="0"></use><g><use xlink:href="#aFoluw8ss" opacity="1" fill-opacity="0" stroke="#000000" stroke-width="1" stroke-opacity="0"></use></g></g><g><use xlink:href="#eTqf3yzr" opacity="1" fill="#000000" fill-opacity="0"></use><g><use xlink:href="#eTqf3yzr" opacity="1" fill-opacity="0" stroke="#000000" stroke-width="4" stroke-opacity="1"></use></g></g></g></g></svg>