<svg width="403" height="261" viewBox="0 0 403 261" fill="none" xmlns="http://www.w3.org/2000/svg">
<g filter="url(#filter0_d)">
<rect x="6" y="247" width="240" height="383" rx="16" transform="rotate(-90 6 247)" fill="white"/>
<path d="M6 83H45C45 83 31.6557 92.8284 23.9524 99.7606C16.4209 106.538 10.3998 112.87 6 118V83Z" fill="#88CAB7"/>
<path fill-rule="evenodd" clip-rule="evenodd" d="M321.5 52C350.814 70.6709 389 110 389 110L389 22.5C389 13.6634 381.837 6.5 373 6.5L198.672 6.5C211.855 9.58773 281.873 26.7608 321.5 52Z" fill="#F28E37"/>
<path fill-rule="evenodd" clip-rule="evenodd" d="M6.00003 99.8934C6.00003 99.8934 69.9306 73.784 127.838 73.784C164.937 73.784 218.93 92.5214 249.198 103.025C260.384 106.907 268.33 109.664 270.983 109.935C280.818 110.94 287.374 99.8934 287.374 99.8934L335.482 7H22C13.1681 7 6.00759 14.1558 6.00001 22.986C6 22.9906 6 22.9953 6 23L6.00003 99.8934Z" fill="#932D5B"/>
<path d="M48.0872 55V35.2973H52.265V51.55H60.2566V55H48.0872ZM75.1784 55H63.8311V35.2973H75.1784V38.7203H68.0088V43.0463H74.6797V46.4693H68.0088V51.55H75.1784V55ZM90.7874 55H79.4402V35.2973H90.7874V38.7203H83.6179V43.0463H90.2888V46.4693H83.6179V51.55H90.7874V55ZM99.227 44.0436H100.575C101.895 44.0436 102.87 43.8234 103.499 43.3832C104.128 42.943 104.442 42.2512 104.442 41.3078C104.442 40.3734 104.119 39.7086 103.472 39.3133C102.834 38.918 101.841 38.7203 100.494 38.7203H99.227V44.0436ZM99.227 47.4396V55H95.0493V35.2973H100.79C103.468 35.2973 105.449 35.7869 106.733 36.7662C108.018 37.7365 108.661 39.2145 108.661 41.2C108.661 42.359 108.342 43.3922 107.704 44.2996C107.066 45.198 106.163 45.9033 104.995 46.4154C107.96 50.8447 109.891 53.7062 110.79 55H106.154L101.451 47.4396H99.227ZM113.408 55V35.2973H117.585V51.55H125.577V55H113.408ZM129.151 55V35.2973H133.329V55H129.151ZM155.906 55H150.596L142.025 40.0949H141.904C142.074 42.7273 142.16 44.6051 142.16 45.7281V55H138.427V35.2973H143.696L152.254 50.0541H152.348C152.213 47.4936 152.146 45.6832 152.146 44.623V35.2973H155.906V55ZM168.496 43.9357H176.312V54.151C175.046 54.5643 173.851 54.8518 172.728 55.0135C171.614 55.1842 170.473 55.2695 169.305 55.2695C166.331 55.2695 164.058 54.398 162.485 52.6551C160.922 50.9031 160.141 48.392 160.141 45.1217C160.141 41.9412 161.048 39.4615 162.863 37.6826C164.687 35.9037 167.211 35.0143 170.437 35.0143C172.458 35.0143 174.408 35.4186 176.285 36.2271L174.897 39.5693C173.46 38.8506 171.964 38.4912 170.41 38.4912C168.604 38.4912 167.157 39.0977 166.07 40.3105C164.983 41.5234 164.44 43.1541 164.44 45.2025C164.44 47.3408 164.875 48.976 165.747 50.108C166.627 51.2311 167.903 51.7926 169.574 51.7926C170.446 51.7926 171.331 51.7027 172.229 51.523V47.4127H168.496V43.9357ZM192.501 55H181.154V35.2973H192.501V38.7203H185.331V43.0463H192.002V46.4693H185.331V51.55H192.501V55ZM214.242 55H208.932L200.361 40.0949H200.24C200.41 42.7273 200.496 44.6051 200.496 45.7281V55H196.763V35.2973H202.032L210.59 50.0541H210.684C210.549 47.4936 210.482 45.6832 210.482 44.623V35.2973H214.242V55ZM232.075 41.0383C232.075 43.0328 231.392 44.5691 230.026 45.6473C228.67 46.7164 226.724 47.251 224.191 47.251H221.873V55H219.582V35.2973H224.689C229.613 35.2973 232.075 37.2109 232.075 41.0383ZM221.873 45.2834H223.935C225.965 45.2834 227.434 44.9555 228.342 44.2996C229.249 43.6437 229.703 42.5926 229.703 41.1461C229.703 39.8434 229.276 38.873 228.423 38.2352C227.569 37.5973 226.239 37.2783 224.433 37.2783H221.873V45.2834ZM248.735 55L246.282 48.7334H238.385L235.959 55H233.641L241.431 35.2164H243.358L251.107 55H248.735ZM245.568 46.6715L243.277 40.5666C242.98 39.7939 242.675 38.8461 242.361 37.723C242.163 38.5855 241.88 39.5334 241.511 40.5666L239.194 46.6715H245.568ZM265.072 49.7576C265.072 51.4916 264.443 52.8437 263.185 53.8141C261.927 54.7844 260.22 55.2695 258.064 55.2695C255.728 55.2695 253.931 54.9686 252.673 54.3666V52.1564C253.482 52.4979 254.362 52.7674 255.315 52.965C256.267 53.1627 257.21 53.2615 258.145 53.2615C259.672 53.2615 260.822 52.974 261.595 52.399C262.367 51.815 262.754 51.0064 262.754 49.9732C262.754 49.2904 262.615 48.7334 262.336 48.3021C262.066 47.8619 261.608 47.4576 260.961 47.0893C260.324 46.7209 259.349 46.3031 258.037 45.8359C256.204 45.1801 254.892 44.4029 254.102 43.5045C253.32 42.6061 252.929 41.4336 252.929 39.9871C252.929 38.4687 253.5 37.2604 254.641 36.3619C255.782 35.4635 257.291 35.0143 259.169 35.0143C261.128 35.0143 262.929 35.3736 264.573 36.0924L263.859 38.0869C262.233 37.4041 260.651 37.0627 259.115 37.0627C257.902 37.0627 256.954 37.3232 256.272 37.8443C255.589 38.3654 255.247 39.0887 255.247 40.0141C255.247 40.6969 255.373 41.2584 255.625 41.6986C255.876 42.1299 256.299 42.5297 256.891 42.898C257.493 43.2574 258.41 43.6572 259.641 44.0975C261.707 44.8342 263.127 45.6248 263.899 46.4693C264.681 47.3139 265.072 48.41 265.072 49.7576Z" fill="white"/>
<path d="M84 151.583C88.8333 151.583 92.75 155.5 92.75 160.333C92.75 165.167 88.8333 169.083 84 169.083C79.1667 169.083 75.25 165.167 75.25 160.333C75.25 155.5 79.1667 151.583 84 151.583ZM84 189.083C96.375 189.083 109.417 195.167 109.417 197.833V202.417H58.5833V197.833C58.5833 195.167 71.625 189.083 84 189.083ZM84 143.667C74.7917 143.667 67.3333 151.125 67.3333 160.333C67.3333 169.542 74.7917 177 84 177C93.2083 177 100.667 169.542 100.667 160.333C100.667 151.125 93.2083 143.667 84 143.667ZM84 181.167C72.875 181.167 50.6667 186.75 50.6667 197.833V210.333H117.333V197.833C117.333 186.75 95.125 181.167 84 181.167Z" fill="#C4C4C4"/>
</g>
<defs>
<filter id="filter0_d" x="0" y="0.5" width="403" height="260.5" filterUnits="userSpaceOnUse" color-interpolation-filters="sRGB">
<feFlood flood-opacity="0" result="BackgroundImageFix"/>
<feColorMatrix in="SourceAlpha" type="matrix" values="0 0 0 0 0 0 0 0 0 0 0 0 0 0 0 0 0 0 127 0"/>
<feOffset dx="4" dy="4"/>
<feGaussianBlur stdDeviation="5"/>
<feColorMatrix type="matrix" values="0 0 0 0 0 0 0 0 0 0 0 0 0 0 0 0 0 0 0.25 0"/>
<feBlend mode="normal" in2="BackgroundImageFix" result="effect1_dropShadow"/>
<feBlend mode="normal" in="SourceGraphic" in2="effect1_dropShadow" result="shape"/>
</filter>
</defs>
</svg>
